<svg width="239" height="411" viewBox="0 0 239 411" fill="none" xmlns="http://www.w3.org/2000/svg">
<path d="M108.961 161.939L109.777 159.181C110.665 156.17 111.134 153.311 111.589 150.538C112.253 146.509 112.882 142.703 114.701 138.66C118.268 130.731 123.099 124.009 129.049 118.687C130.558 117.33 132.183 116.03 133.757 114.766C136.659 112.427 139.67 110.008 142.19 107.12C154.935 92.512 152.112 70.4815 147.505 54.567C146.458 50.935 145.274 47.2525 144.126 43.6854C139.786 30.1899 135.295 16.2322 137.02 2.26009L137.302 0L135.461 1.33582C125.698 8.41935 118.391 19.6837 114.874 33.0565C111.965 44.1115 111.495 56.5383 113.438 71.0664L113.762 73.406C114.499 78.6988 115.272 84.1793 114.188 89.3638C113.394 93.1619 111.603 96.7722 109.863 100.26C109.098 101.812 108.325 103.365 107.632 104.939C103.271 114.831 101.531 125.46 102.448 136.551C103.069 144.025 104.91 151.664 107.906 159.268L108.961 161.939ZM134.833 4.31076C133.764 17.9291 138.067 31.3163 142.241 44.2919C143.382 47.8445 144.566 51.5127 145.606 55.1158C150.083 70.5537 152.856 91.891 140.703 105.827C138.299 108.578 135.36 110.939 132.515 113.228C130.926 114.499 129.28 115.828 127.727 117.214C121.568 122.724 116.579 129.663 112.896 137.844C110.975 142.126 110.297 146.241 109.639 150.22C109.351 151.975 109.055 153.773 108.65 155.614C106.368 149.159 104.946 142.711 104.419 136.385C103.523 125.633 105.213 115.322 109.437 105.74C110.123 104.188 110.881 102.664 111.632 101.141C113.423 97.5376 115.272 93.8117 116.124 89.7681C117.279 84.2442 116.478 78.5977 115.712 73.1316L115.394 70.8064C113.488 56.5383 113.943 44.3569 116.781 33.5619C119.965 21.4672 126.334 11.1632 134.833 4.31076Z" fill="#E8C9D9"/>
<path d="M151.49 217.51L150.862 215.777C146.06 202.383 121.105 190.432 107.372 189.732C104.382 189.573 101.436 189.948 98.5912 190.302C93.6811 190.909 89.0381 191.494 84.4241 189.515C80.7921 187.97 77.3767 184.966 74.084 182.063C71.2968 179.616 68.4158 177.081 65.3325 175.319C51.4832 167.441 35.2725 163.802 19.683 165.08C12.6211 165.665 4.28847 165.579 2.61325 159.759L-0.000640869 150.682L0.678055 160.105C2.19441 181.118 17.3002 200.159 37.4244 206.412C42.6594 208.036 48.1471 208.831 53.4544 209.603C58.5089 210.333 63.7367 211.091 68.6613 212.564C71.8312 213.51 75.0011 214.781 78.0699 216.023C84.3447 218.543 90.8361 221.156 97.7535 221.171C104.115 221.185 110.007 218.983 115.697 216.853C121.062 214.86 126.6 212.788 132.37 212.679C136.529 212.6 140.06 213.856 143.793 215.192C145.692 215.864 147.656 216.564 149.7 217.07L151.49 217.51ZM19.8491 167.052C35.0416 165.81 50.8477 169.355 64.3505 177.038C67.2677 178.699 70.0693 181.161 72.777 183.551C76.1924 186.555 79.7234 189.66 83.6443 191.335C88.7566 193.523 93.876 192.88 98.8366 192.259C101.595 191.92 104.454 191.559 107.27 191.703C119.849 192.346 142.139 202.65 148.205 214.6C146.934 214.21 145.685 213.762 144.457 213.329C140.724 211.993 136.854 210.614 132.334 210.701C126.225 210.816 120.521 212.947 115.011 215.004C109.473 217.07 103.754 219.207 97.7608 219.192C91.2188 219.178 85.1895 216.752 78.8063 214.189C75.6942 212.932 72.481 211.64 69.2316 210.665C64.1627 209.156 58.8627 208.39 53.736 207.646C48.5082 206.888 43.0998 206.101 38.0092 204.52C20.0151 198.931 6.18752 182.713 3.15482 164.214C6.93126 167.55 13.8126 167.55 19.8491 167.052Z" fill="#E8C9D9"/>
<path d="M179.276 259.932L180.742 258.018C184.396 253.224 188.938 251.837 193.754 250.372C196.837 249.426 200.036 248.444 203.249 246.552C204.303 245.931 205.776 244.913 206.412 243.281C206.946 241.865 206.722 240.393 206.52 239.093C206.455 238.667 206.39 238.241 206.347 237.822C205.899 232.919 209.235 228.912 212.773 224.673C214.037 223.149 215.351 221.583 216.463 219.972C220.622 213.929 222.131 206.571 222.897 201.559C226.832 175.919 220.254 149.245 204.838 128.37L203.177 129.432C205.639 133.93 205.473 139.916 202.657 147.729C202.216 148.949 201.747 150.162 201.278 151.383C199.357 156.365 197.371 161.52 197.451 166.987C197.494 169.543 197.992 172.056 198.483 174.482C198.895 176.568 199.328 178.727 199.444 180.843C199.92 189.667 195.155 197.74 190.548 205.545C188.916 208.318 187.219 211.192 185.775 214.066C183.212 219.164 182.511 223.669 181.767 228.442C181.544 229.865 181.313 231.331 181.031 232.876L180.865 233.764C179.435 241.483 177.948 249.469 178.973 257.542L179.276 259.932ZM190.504 249.317C186.995 250.473 183.674 251.924 180.713 255.007C180.237 247.996 181.544 240.956 182.807 234.125L182.973 233.237C183.262 231.677 183.493 230.19 183.717 228.745C184.468 223.929 185.118 219.77 187.544 214.954C188.959 212.138 190.635 209.293 192.252 206.549C197.01 198.491 201.928 190.158 201.415 180.735C201.292 178.475 200.852 176.251 200.419 174.092C199.928 171.644 199.465 169.333 199.429 166.95C199.35 161.874 201.271 156.899 203.126 152.097C203.596 150.863 204.072 149.635 204.52 148.4C206.419 143.115 207.177 138.573 206.78 134.674C219.337 154.264 224.485 178.193 220.947 201.263C219.77 208.917 217.828 214.506 214.831 218.853C213.77 220.384 212.492 221.922 211.25 223.409C207.618 227.771 203.856 232.284 204.383 238.002C204.426 238.465 204.491 238.927 204.563 239.396C204.744 240.559 204.917 241.649 204.563 242.566C204.253 243.375 203.516 244.104 202.245 244.848C199.234 246.624 196.151 247.563 193.176 248.48C192.274 248.754 191.378 249.029 190.504 249.317Z" fill="#E8C9D9"/>
<path d="M213.214 336.638L215.005 335.807C206.874 318.34 194.022 306.296 174.554 297.891C171.132 296.418 167.601 294.996 164.178 293.617C151.354 288.454 138.097 283.125 127.937 273.76C124.731 270.799 121.655 267.326 118.673 263.961C110.803 255.065 102.665 245.859 90.8878 244.739L87.8551 244.451L90.1368 246.465C95.2635 250.978 99.5671 256.285 102.925 262.235C105.929 267.557 108.16 273.406 110.319 279.06C112.507 284.8 114.767 290.728 117.85 296.18C129.064 316.03 151.903 328.861 174.677 328.117C177.024 328.045 179.602 327.792 182.324 327.532C194.267 326.37 207.806 325.063 213.2 336.623C213.207 336.623 213.207 336.63 213.214 336.638ZM93.87 247.231C103.192 249.447 110.015 257.152 117.2 265.275C120.204 268.669 123.316 272.185 126.602 275.211C137.021 284.822 150.452 290.223 163.442 295.451C166.85 296.823 170.374 298.238 173.775 299.704C189.559 306.52 200.881 315.777 208.795 328.464C201.524 323.684 191.018 324.702 182.129 325.561C179.443 325.821 176.901 326.066 174.619 326.146C152.553 326.861 130.429 314.434 119.569 295.212C116.565 289.883 114.326 284.027 112.167 278.359C109.979 272.633 107.719 266.712 104.643 261.268C101.719 256.083 98.1013 251.375 93.87 247.231Z" fill="#E8C9D9"/>
<path d="M209.221 168.929C208.918 175.803 210.759 182.785 209.589 189.667C208.181 198.021 204.39 204.448 200.592 211.856C198.657 215.633 198.072 219.943 196.238 223.655C194.635 226.904 192.389 229.583 190.122 232.349C184.555 239.158 182.764 247.259 181.009 255.671C180.93 256.09 180.316 256.033 180.28 255.614C179.861 250.177 181.529 242.97 183.782 238.082C185.118 235.172 187.826 232.789 189.754 230.341C193.198 225.987 194.512 221.915 196.476 216.939C199.791 208.556 205.387 201.559 207.466 192.591C209.271 184.822 207.957 176.734 209.12 168.922C209.127 168.864 209.228 168.871 209.221 168.929Z" fill="#E8C9D9"/>
<path d="M112.506 269.737C118.68 271.203 123.604 280.027 127.186 284.757C134.435 294.331 143.627 302.382 155.339 305.899C159.874 307.264 164.69 307.35 169.239 308.556C174.286 309.899 178.64 312.477 183.421 314.484C191.342 317.82 200.425 318.376 207.755 322.969C208.383 323.366 208.058 324.218 207.343 324.153C204.52 323.9 201.826 322.369 199.133 321.496C193.688 319.727 188.071 318.535 182.662 316.658C177.615 314.91 172.914 312.347 167.679 311.127C163.325 310.116 158.704 310 154.422 308.513C145.916 305.56 138.724 300.122 132.594 293.653C126.5 287.212 121.214 272.503 112.463 269.94C112.333 269.904 112.369 269.701 112.506 269.737Z" fill="#E8C9D9"/>
<path d="M14.6365 177.139C23.3736 173.817 32.7318 181.349 39.707 185.544C43.4112 187.768 47.2165 189.862 50.8413 192.223C58.062 196.931 65.781 199.285 74.0127 201.668C86.1363 205.17 98.722 203.343 111.156 202.578C123.309 201.827 132.32 203.848 142.364 210.455C142.646 210.643 142.444 211.048 142.126 210.925C135.728 208.585 130.407 206.13 123.489 205.249C117.034 204.426 110.528 205.285 104.058 205.711C94.3751 206.347 84.5188 207.264 75.0669 204.765C64.7845 202.043 55.3904 197.906 46.74 191.84C37.4252 185.313 26.3847 176.135 14.3261 177.24C14.1095 177.262 14.0445 176.922 14.2539 176.857C14.3478 176.836 14.4344 176.807 14.5211 176.785C14.7521 176.72 14.8604 177.052 14.6365 177.139Z" fill="#E8C9D9"/>
<path d="M128.579 30.2259C121.799 49.9457 136.659 71.5068 130.247 91.5154C127.576 99.8409 121.164 108.686 116.759 116.225C112.73 123.121 111.192 128.233 110.08 136.118C109.69 138.912 109.61 141.736 108.968 144.451C108.722 145.476 107.206 145.144 107.372 144.111C108.029 139.902 107.56 135.367 108.253 131.013C109.054 125.944 110.542 122.406 113.105 117.792C117.893 109.177 124.875 100.05 128.103 90.7572C134.883 71.2251 120.933 49.5774 128.428 30.1681C128.464 30.0886 128.608 30.1392 128.579 30.2259Z" fill="#E8C9D9"/>
<path d="M222.753 371.983L224.254 364.791C226.088 356.061 231.165 347.895 238.19 342.392C241.692 339.656 245.772 337.439 249.729 335.302L251 334.609V332.356C250.271 332.76 249.527 333.157 248.783 333.561C244.761 335.742 240.602 337.995 236.97 340.84C232.154 344.616 228.204 349.577 225.511 355.123C225.157 353.505 225.099 351.881 225.244 350.299C225.713 347.938 226.327 345.598 227.092 343.324C227.93 341.36 228.897 339.649 229.72 338.363C231.258 335.937 233.064 333.605 234.797 331.345C237.078 328.384 239.432 325.33 241.288 321.987C245.628 314.181 247.144 305.047 245.548 296.259C245.418 295.544 245.274 294.829 245.122 294.107C244.523 291.234 243.953 288.519 244.617 285.912C245.245 283.464 246.913 281.377 248.574 279.442C249.368 278.518 250.177 277.601 251 276.705V273.81C249.657 275.218 248.35 276.669 247.079 278.15C245.346 280.171 243.433 282.562 242.703 285.421C241.931 288.475 242.566 291.544 243.187 294.512C243.332 295.212 243.476 295.913 243.606 296.613C245.093 304.83 243.62 313.726 239.562 321.026C237.779 324.24 235.468 327.236 233.23 330.139C231.468 332.428 229.641 334.803 228.052 337.302C227.612 337.988 227.2 338.681 226.818 339.374L226.507 339.244C226.06 340.327 225.648 341.425 225.273 342.537C224.197 345.071 223.54 347.563 223.301 349.945C222.348 354.783 222.002 359.737 222.305 364.647L222.753 371.983ZM224.717 356.856C224.565 357.209 224.413 357.57 224.269 357.931C224.291 357.614 224.312 357.296 224.334 356.978L224.717 356.856Z" fill="#E8C9D9"/>
<path d="M251 316.47C248.754 318.738 246.104 320.665 244.162 323.178C241.815 326.218 241.685 329.605 239.858 332.84C238.667 334.955 236.566 337.085 234.883 338.891C230.089 344.017 227.063 348.667 226.594 356.061C226.536 356.885 225.33 357 225.273 356.126C224.774 349.007 227.641 343.721 232.132 338.645C237.548 332.522 239.028 324.752 245.028 319.142C247.325 316.99 249.318 314.99 251 312.954V316.47Z" fill="#E8C9D9"/>
<path d="M97.0756 113.965C98.5414 122.326 100.513 130.139 103.278 138.161C105.509 144.631 107.148 152.574 110.679 158.459C117.351 169.593 125.063 180.424 132.616 191.024C148.076 212.737 165.333 233.634 178.951 256.726C192.613 279.911 201.827 304.975 212.817 329.28C224.283 354.653 231.901 383.132 237.822 410.231C237.945 410.766 237.151 411.062 236.992 410.506C228.666 381.579 218.001 352.812 206.412 325.07C195.689 299.379 185.595 272.951 169.933 249.592C155.073 227.438 138.458 206.787 123.597 184.742C116.795 174.655 108.434 164.105 104.852 152.422C100.946 139.663 96.9456 127.309 94.9671 114.073C94.7649 112.715 96.8445 112.65 97.0756 113.965Z" fill="#E8C9D9"/>
</svg>
