<svg width="1264" height="527" viewBox="0 0 1264 527" fill="none" xmlns="http://www.w3.org/2000/svg">
<path d="M-279.963 525.075C-278.893 523.646 -279.543 522.076 -279.693 520.606C-281.043 508.178 -281.373 495.73 -280.563 483.252C-279.723 470.324 -277.753 457.576 -274.924 444.918C-272.254 433 -268.555 421.422 -264.196 410.064C-255.337 386.938 -243.519 365.401 -228.731 345.504C-201.596 308.96 -168.551 278.865 -129.947 254.819C-96.5926 234.042 -60.8783 218.845 -22.5445 210.046C4.61115 203.807 32.1467 201.448 59.9922 202.787C61.9519 202.887 63.9515 203.387 66.2812 202.607C66.6911 201.288 67.181 199.868 67.5809 198.418C73.7499 175.972 84.9382 156.405 101.296 139.817C112.964 127.979 126.382 118.521 141.049 110.772C159.036 101.274 178.173 95.0747 198.02 90.9353C224.516 85.3962 251.331 83.4465 278.347 83.9165C300.233 84.2964 321.98 86.2661 343.646 89.3056C358.444 91.3853 373.182 93.7949 387.799 96.8644C400.757 99.5939 413.615 102.773 426.493 105.833C445.09 110.252 463.427 115.621 481.614 121.45C500.091 127.379 518.458 133.648 536.835 139.887C551.563 144.887 566.24 150.026 580.928 155.155C594.006 159.734 607.054 164.413 620.132 169.003C627.111 171.452 634.1 173.842 641.108 176.212C670.584 186.19 700.319 195.339 730.374 203.417C749.711 208.616 769.218 213.136 788.915 216.785C826.229 223.714 863.823 227.713 901.836 227.163C949.089 226.483 994.831 217.665 1039.29 201.877C1064.3 192.989 1088.53 182.371 1111.7 169.353C1150.54 147.526 1183.14 118.651 1210.05 83.2266C1223.46 65.5694 1236.31 47.5223 1247.66 28.4454C1253.13 19.2469 1257.97 9.78842 1262.14 0H1263.42C1257.59 15.1076 1249.67 29.1553 1241.02 42.8131C1229.24 61.4401 1216.52 79.3872 1202.66 96.5144C1177.65 127.399 1147.79 152.615 1113.08 171.932C1058.75 202.177 1000.8 221.444 938.86 228.193C910.615 231.273 882.329 231.083 854.034 228.853C837.457 227.543 820.949 225.574 804.542 222.854C789.354 220.344 774.267 217.295 759.239 213.886C729.924 207.217 701.049 199.008 672.423 189.879C654.086 184.03 635.899 177.711 617.672 171.502C604.264 166.933 590.906 162.224 577.529 157.545C563.141 152.515 548.763 147.426 534.366 142.407C527.247 139.917 520.098 137.498 512.939 135.098C487.373 126.54 461.677 118.381 435.612 111.502C417.594 106.743 399.457 102.483 381.15 98.944C354.515 93.8149 327.729 89.9355 300.653 88.1758C267.969 86.0561 235.424 87.0959 203.179 93.3149C182.043 97.3843 161.656 103.673 142.559 113.782C123.122 124.07 106.115 137.288 92.6669 154.855C82.7185 167.863 75.7097 182.321 71.1104 197.988C70.6505 199.568 69.9006 201.168 70.6905 203.147C71.7603 203.397 72.9201 203.787 74.0999 203.907C94.7366 205.947 114.873 210.396 134.45 217.105C172.074 230.003 205.199 250.12 232.424 279.395C243.503 291.313 252.671 304.591 259.26 319.548C264.409 331.217 267.549 343.375 267.709 356.203C267.789 363.361 266.789 370.32 264.219 377.039C260.3 387.297 253.351 394.796 243.533 399.636C235.794 403.455 227.495 404.895 218.937 405.125C210.418 405.355 201.999 404.395 193.741 402.475C155.197 393.526 123.362 373.46 98.076 343.265C74.4598 315.059 63.0917 282.095 62.0918 245.44C61.7619 233.542 62.7317 221.754 64.8314 210.046C64.9914 209.156 65.0814 208.256 65.2014 207.397C63.9316 205.937 62.3018 206.197 60.8221 206.127C48.824 205.507 36.8259 205.637 24.8378 206.437C-8.17685 208.636 -39.9517 216.215 -70.5968 228.563C-132.147 253.359 -183.409 291.763 -223.772 344.534C-235.89 360.372 -246.148 377.339 -254.407 395.476C-262.856 414.043 -269.405 433.26 -273.304 453.317C-278.013 477.543 -278.933 501.889 -275.524 526.365C-277.003 525.935 -278.483 525.505 -279.963 525.075ZM69.1607 206.727C68.6308 208.906 68.1509 210.506 67.8609 212.156C65.6113 225.244 64.9014 238.432 65.7313 251.689C67.8309 284.974 78.8692 314.899 100.236 340.575C125.442 370.86 157.237 390.897 195.89 399.546C203.709 401.295 211.678 402.105 219.726 401.795C227.805 401.485 235.634 400.046 242.883 396.276C253.831 390.597 260.43 381.508 263.159 369.63C264.689 362.991 264.749 356.213 264.049 349.424C262.729 336.526 258.57 324.518 252.521 313.129C243.453 296.082 231.275 281.495 216.937 268.657C192.051 246.37 163.625 230.233 131.951 219.755C115.393 214.275 98.476 210.306 81.1888 207.996C77.3994 207.497 73.59 207.187 69.1607 206.727Z" fill="#E8C9D9"/>
</svg>
