<svg width="88" height="88" viewBox="0 0 88 88" fill="none" xmlns="http://www.w3.org/2000/svg">
<rect x="22.9517" y="10.3991" width="27" height="74" rx="2" transform="rotate(-11.4024 22.9517 10.3991)" stroke="#C982A7" stroke-width="1.5"/>
<path d="M35.6038 73.1361L62.0709 67.7983L63.6524 75.6404C63.8708 76.7231 63.1701 77.7779 62.0873 77.9963L39.5413 82.5433C38.4585 82.7617 37.4037 82.061 37.1853 80.9782L35.6038 73.1361Z" stroke="#C982A7" stroke-width="1.5"/>
<path d="M31.5022 22.4464L39.8056 63.6175C40.0785 64.9709 41.397 65.8469 42.7505 65.5739C44.1039 65.3009 44.9798 63.9824 44.7069 62.629L43.3724 56.0122C43.0994 54.6588 43.9754 53.3403 45.3288 53.0673C46.6823 52.7943 48.0008 53.6703 48.2737 55.0237L48.8934 58.0965C49.1664 59.4499 50.4849 60.3258 51.8383 60.0529C53.1918 59.7799 54.0677 58.4614 53.7947 57.108L52.2162 49.281L47.1353 24.0882C46.8624 22.7347 45.5439 21.8588 44.1904 22.1318C42.837 22.4048 41.9611 23.7232 42.234 25.0767L42.8224 27.9942C43.0306 29.0264 42.5697 30.0783 41.6698 30.6251C40.1887 31.5248 38.2637 30.6814 37.9211 28.9827L36.4035 21.4579C36.1306 20.1045 34.8121 19.2286 33.4586 19.5015C32.1052 19.7745 31.2293 21.093 31.5022 22.4464Z" stroke="#F7B5CC" stroke-width="1.5"/>
</svg>
