<svg width="28" height="16" viewBox="0 0 28 16" fill="none" xmlns="http://www.w3.org/2000/svg">
<path d="M5.76465 15.9991H10.5222L19.1741 4.86556C19.6497 4.25333 20.269 3.89221 21.0413 3.79106C21.2525 3.76311 21.4579 3.7569 21.6576 3.77199C22.1686 3.82034 22.6411 4.01066 23.0741 4.34339C23.689 4.81587 24.0474 5.43829 24.1486 6.21111C24.2497 6.98349 24.0736 7.68488 23.5923 8.29267L17.4882 15.9991L22.2569 16C23.7564 14.1159 25.1188 12.4806 26.6192 10.5841C27.7461 9.15909 28.1582 7.52561 27.9217 5.72621C27.6857 3.92726 26.8512 2.47612 25.4103 1.36924C24.3646 0.565807 23.2223 0.116846 21.985 0.0227948C21.5058 -0.0175764 21.0121 -0.00426656 20.5041 0.0622792C18.7047 0.298295 17.2327 1.1177 16.1471 2.57416C12.8181 7.03761 9.13896 11.4869 5.76465 15.9991Z" fill="#ED578A"/>
<path d="M22.2213 15.9991H17.4638L8.81192 4.86556C8.33634 4.25333 7.71703 3.89221 6.94465 3.79106C6.73348 3.76311 6.52807 3.7569 6.32844 3.77199C5.81736 3.82034 5.34489 4.01066 4.9119 4.34339C4.29702 4.81587 3.93855 5.43829 3.8374 6.21111C3.73581 6.98349 3.91238 7.68488 4.39373 8.29267L10.4978 15.9991L5.72908 16C4.22958 14.1159 2.86717 12.4806 1.36678 10.5841C0.23994 9.15909 -0.1722 7.52561 0.0642595 5.72621C0.300275 3.92726 1.13476 2.47612 2.5757 1.36924C3.62135 0.565807 4.76372 0.116846 6.00059 0.0227948C6.48016 -0.0175764 6.97393 -0.00426656 7.4819 0.0622792C9.28129 0.298295 10.7533 1.1177 11.8389 2.57416C15.1675 7.03761 18.847 11.4869 22.2213 15.9991Z" fill="#A14574"/>
</svg>
