<svg width="88" height="88" viewBox="0 0 88 88" fill="none" xmlns="http://www.w3.org/2000/svg">
<path d="M46.5759 21.2797L45.098 30.6703M41.1343 55.8541L42.0077 50.3051" stroke="#F7B5CC" stroke-width="1.5"/>
<rect x="38.1709" y="55.3876" width="6" height="14" rx="3" transform="rotate(8.94432 38.1709 55.3876)" stroke="#F7B5CC" stroke-width="1.5"/>
<path d="M34.7219 19.414L57.4422 22.9899M34.7219 19.414L25.7044 76.7087C25.5326 77.7998 26.278 78.8236 27.3691 78.9953L46.1381 81.9493C47.2292 82.1211 48.2529 81.3758 48.4247 80.2846L57.4422 22.9899M34.7219 19.414L27.5701 64.8546C26.8831 69.2192 29.8644 73.3142 34.229 74.0011L41.1439 75.0895C45.5084 75.7764 49.6034 72.7951 50.2904 68.4305L57.4422 22.9899M34.7219 19.414L36.6469 19.717M34.7219 19.414C33.6307 19.2423 32.8854 18.2185 33.0572 17.1274M34.7219 19.414L58.43 23.1454M60.7167 21.4806L62.2714 11.6022C62.4432 10.5111 61.6978 9.48735 60.6067 9.31562L57.6432 8.84919M60.7167 21.4806C60.5449 22.5718 59.5212 23.3171 58.43 23.1454M60.7167 21.4806L60.8721 20.4928L33.2126 16.1395L33.0572 17.1274M33.0572 17.1274L34.6119 7.24896C34.7836 6.15782 35.8074 5.41249 36.8985 5.58423L39.8621 6.05065M58.43 23.1454L55.7958 22.7308M39.8621 6.05065L38.1518 16.9169M39.8621 6.05065L44.3073 6.75029M44.3073 6.75029L42.5971 17.6165M44.3073 6.75029L48.7526 7.44992M48.7526 7.44992L47.0424 18.3162M48.7526 7.44992L53.1979 8.14956M53.1979 8.14956L51.4877 19.0158M53.1979 8.14956L57.6432 8.84919M57.6432 8.84919L55.9329 19.7154M33.1671 29.2924L55.8875 32.8683L52.778 52.6251L30.0577 49.0492L33.1671 29.2924Z" stroke="#C982A7" stroke-width="1.5"/>
</svg>
