<svg width="88" height="88" viewBox="0 0 88 88" fill="none" xmlns="http://www.w3.org/2000/svg">
<path d="M67.6069 29.3767C67.8152 30.3706 67.1791 31.3437 66.188 31.5514L66.4957 33.0195C68.299 32.6416 69.4529 30.8724 69.0751 29.0691L67.6069 29.3767ZM66.188 31.5514C65.197 31.759 64.2237 31.1232 64.0154 30.1293L62.5473 30.4369C62.9252 32.2403 64.6924 33.3974 66.4957 33.0195L66.188 31.5514ZM64.0154 30.1293C63.8072 29.1354 64.4433 28.1623 65.4344 27.9547L65.1267 26.4866C63.3234 26.8644 62.1695 28.6336 62.5473 30.4369L64.0154 30.1293ZM65.4344 27.9547C66.4254 27.747 67.3987 28.3828 67.6069 29.3767L69.0751 29.0691C68.6972 27.2658 66.93 26.1087 65.1267 26.4866L65.4344 27.9547Z" fill="#F7B5CC"/>
<path d="M8.77279 20.5563L9.49822 20.7467L8.77279 20.5563ZM13.4671 15.6387C12.7126 15.8865 11.5726 16.2927 10.5224 17.0099C9.46397 17.7327 8.45887 18.798 8.04736 20.3659L9.49822 20.7467C9.79158 19.629 10.5094 18.8352 11.3683 18.2486C12.2355 17.6564 13.2071 17.3029 13.9351 17.0638L13.4671 15.6387ZM8.04736 20.3659C7.76497 21.4418 8.04754 22.7776 8.55287 24.1928C9.07018 25.6416 9.88175 27.3307 10.832 29.1833C12.7468 32.9167 15.2473 37.3614 17.3065 42.1819L18.6859 41.5927C16.5991 36.7076 14.0473 32.1653 12.1667 28.4988C11.2191 26.6514 10.4472 25.0374 9.96552 23.6884C9.47188 22.3059 9.34005 21.3493 9.49822 20.7467L8.04736 20.3659Z" fill="#F7B5CC"/>
<path d="M41.3455 13.7308L40.7575 14.1964L41.3455 13.7308ZM35.2153 12.6046C35.978 12.5313 37.0099 12.465 38.0418 12.6593C39.064 12.8517 40.0401 13.2905 40.7575 14.1964L41.9334 13.2652C40.9271 11.9944 39.5789 11.4223 38.3193 11.1851C37.0696 10.9499 35.8623 11.0355 35.0718 11.1115L35.2153 12.6046ZM40.7575 14.1964C41.1443 14.6848 41.4076 15.6139 41.5105 17.0783C41.6109 18.5071 41.5519 20.2953 41.4257 22.3676C41.1753 26.4807 40.6617 31.6653 40.7116 36.9773L42.2115 36.9632C42.1623 31.7214 42.668 26.6468 42.9229 22.4588C43.0495 20.3805 43.1147 18.5077 43.0068 16.9731C42.9015 15.474 42.624 14.1372 41.9334 13.2652L40.7575 14.1964Z" fill="#F7B5CC"/>
<path d="M18.2795 18.0355L18.4333 18.7695L18.2795 18.0355ZM31.6267 15.2386L31.7806 15.9727L31.6267 15.2386ZM21.9069 42.0706L22.4939 41.6038L21.9069 42.0706ZM30.9069 45.5266L30.7547 44.7922L30.7514 44.7929L30.9069 45.5266ZM29.9443 51.0155L30.6784 50.8617C30.607 50.5211 30.3108 50.2744 29.963 50.2657L29.9443 51.0155ZM18.431 46.3066L17.9282 46.863L17.9282 46.863L18.431 46.3066ZM37.7623 38.7482L37.0372 38.5563L37.7623 38.7482ZM33.992 50.1673L33.6739 49.4881C33.3588 49.6357 33.1866 49.9806 33.258 50.3211L33.992 50.1673ZM42.6463 41.2323L41.9624 40.9245L42.6463 41.2323ZM71.5886 48.1051L72.3255 47.9648L72.3227 47.9512L71.5886 48.1051ZM73.0149 55.5999L73.7517 55.4597L73.0149 55.5999ZM32.5976 63.6776L33.3317 63.5237L32.5976 63.6776ZM35.1595 55.7386L35.9021 55.6339L35.8986 55.6092L35.8935 55.5848L35.1595 55.7386ZM67.5409 48.9532L66.8069 49.1071L66.812 49.1315L66.8187 49.1555L67.5409 48.9532ZM69.7755 35.7957C69.6906 35.3903 69.293 35.1305 68.8876 35.2154C68.4822 35.3004 68.2224 35.6979 68.3074 36.1033L69.7755 35.7957ZM65.7278 36.6438C65.6429 36.2384 65.2454 35.9787 64.84 36.0636C64.4346 36.1486 64.1748 36.5461 64.2597 36.9515L65.7278 36.6438ZM17.1597 12.6917C18.7334 12.362 19.8432 13.33 20.1409 14.5049C20.2894 15.0907 20.2217 15.6899 19.9282 16.1769C19.6414 16.6528 19.0923 17.0989 18.1256 17.3014L18.4333 18.7695C19.7433 18.495 20.6792 17.8368 21.213 16.9511C21.74 16.0766 21.8282 15.0569 21.595 14.1365C21.1294 12.2991 19.3258 10.7053 16.8521 11.2236L17.1597 12.6917ZM18.1256 17.3014C16.8648 17.5656 15.9669 17.3956 15.3859 17.0718C14.8105 16.7511 14.488 16.2506 14.3978 15.7084C14.2221 14.6534 14.9374 13.1574 17.1597 12.6917L16.8521 11.2236C14.0143 11.8183 12.5834 13.9443 12.9181 15.9547C13.083 16.9452 13.6799 17.8382 14.6557 18.3821C15.626 18.9229 16.9112 19.0885 18.4333 18.7695L18.1256 17.3014ZM30.1993 8.42676C27.7256 8.94512 26.7136 11.1289 27.0249 12.9987C27.1808 13.9353 27.6709 14.8338 28.5047 15.4232C29.3491 16.0201 30.4705 16.2472 31.7806 15.9727L31.4729 14.5045C30.5063 14.7071 29.8242 14.519 29.3706 14.1983C28.9063 13.8701 28.6037 13.3485 28.5045 12.7524C28.3055 11.5568 28.9333 10.2246 30.507 9.89488L30.1993 8.42676ZM31.7806 15.9727C33.3026 15.6537 34.4133 14.9861 35.0848 14.1012C35.7602 13.2114 35.9483 12.1539 35.7017 11.1805C35.2011 9.20484 33.0371 7.83212 30.1993 8.42676L30.507 9.89488C32.7293 9.4292 33.985 10.5122 34.2477 11.5489C34.3827 12.0818 34.2883 12.6696 33.89 13.1944C33.4879 13.7241 32.7338 14.2403 31.4729 14.5045L31.7806 15.9727ZM18.2632 44.5457L18.1231 43.877L16.6549 44.1846L16.7951 44.8534L18.2632 44.5457ZM21.3199 42.5375C22.588 44.132 23.9111 45.3204 25.508 45.9748C27.1152 46.6334 28.9124 46.7158 31.0623 46.2603L30.7514 44.7929C28.8089 45.2045 27.333 45.1016 26.0767 44.5868C24.8102 44.0677 23.6795 43.0946 22.4939 41.6038L21.3199 42.5375ZM29.963 50.2657C26.3101 50.1748 22.6683 49.1243 18.9338 45.7501L17.9282 46.863C21.9555 50.5018 25.9518 51.6663 29.9257 51.7653L29.963 50.2657ZM19.4674 41.8166C20.1384 41.676 20.8552 41.9531 21.3199 42.5375L22.4939 41.6038C21.7144 40.6236 20.4436 40.0794 19.1597 40.3485L19.4674 41.8166ZM16.7951 44.8534C16.9535 45.6095 17.3324 46.3247 17.9282 46.863L18.9338 45.7501C18.5958 45.4446 18.363 45.022 18.2632 44.5457L16.7951 44.8534ZM18.1231 43.877C17.9257 42.9352 18.5285 42.0133 19.4674 41.8166L19.1597 40.3485C17.4086 40.7154 16.288 42.4335 16.6549 44.1846L18.1231 43.877ZM43.5612 39.2447L43.4211 38.5759L41.953 38.8835L42.0931 39.5523L43.5612 39.2447ZM37.0372 38.5563C36.5499 40.3977 35.905 41.7429 34.9534 42.7267C34.0095 43.7026 32.699 44.3893 30.7547 44.7922L31.059 46.261C33.211 45.8151 34.8239 45.0181 36.0315 43.7696C37.2313 42.5292 37.9661 40.9095 38.4873 38.9401L37.0372 38.5563ZM34.3101 50.8465C37.91 49.1605 41.1026 46.4896 43.3302 41.5402L41.9624 40.9245C39.8967 45.5141 36.983 47.9383 33.6739 49.4881L34.3101 50.8465ZM39.5869 36.068C38.3031 36.3371 37.3577 37.3456 37.0372 38.5563L38.4873 38.9401C38.6783 38.2184 39.2236 37.6768 39.8946 37.5362L39.5869 36.068ZM42.0931 39.5523C42.1929 40.0285 42.1494 40.5091 41.9624 40.9245L43.3302 41.5402C43.6598 40.8079 43.7197 40.0008 43.5612 39.2447L42.0931 39.5523ZM43.4211 38.5759C43.0541 36.8248 41.3381 35.7011 39.5869 36.068L39.8946 37.5362C40.8335 37.3394 41.7556 37.9418 41.953 38.8835L43.4211 38.5759ZM70.8518 48.2453L72.2781 55.7401L73.7517 55.4597L72.3254 47.9649L70.8518 48.2453ZM34.4168 55.8433C35.5237 63.695 38.6891 69.183 42.7602 72.4747C46.8304 75.7655 51.7587 76.8191 56.2799 75.8717C60.8011 74.9243 64.8919 71.9808 67.2985 67.3328C69.7056 62.6836 70.4015 56.3865 68.2631 48.751L66.8187 49.1555C68.8762 56.5024 68.1653 62.3963 65.9664 66.6431C63.767 70.8911 60.0524 73.5486 55.9723 74.4036C51.8922 75.2585 47.4231 74.3158 43.7033 71.3082C39.9845 68.3014 36.9672 63.1888 35.9021 55.6339L34.4168 55.8433ZM56.8213 78.4554C46.0255 80.7176 35.5864 74.2838 33.3317 63.5237L31.8636 63.8314C34.298 75.4491 45.57 82.3457 57.1289 79.9236L56.8213 78.4554ZM72.2781 55.7401C74.3707 66.7359 67.729 76.1698 56.8213 78.4554L57.1289 79.9236C68.7974 77.4785 76.0046 67.2977 73.7517 55.4597L72.2781 55.7401ZM72.3227 47.9512L69.7755 35.7957L68.3074 36.1033L70.8545 48.2589L72.3227 47.9512ZM68.275 48.7994L65.7278 36.6438L64.2597 36.9515L66.8069 49.1071L68.275 48.7994ZM71.6543 28.5286C72.3315 31.7603 70.2633 34.9272 67.0367 35.6033L67.3444 37.0714C71.3831 36.2251 73.9692 32.2621 73.1224 28.221L71.6543 28.5286ZM67.0367 35.6033C63.8102 36.2794 60.6446 34.2092 59.9674 30.9775L58.4993 31.2852C59.3461 35.3263 63.3056 37.9177 67.3444 37.0714L67.0367 35.6033ZM59.9674 30.9775C59.2902 27.7458 61.3584 24.579 64.585 23.9029L64.2773 22.4347C60.2386 23.281 57.6525 27.2441 58.4993 31.2852L59.9674 30.9775ZM64.585 23.9029C67.8115 23.2268 70.9771 25.2969 71.6543 28.5286L73.1224 28.221C72.2756 24.1799 68.3161 21.5884 64.2773 22.4347L64.585 23.9029ZM67.6066 29.3768C67.8149 30.3707 67.1787 31.3438 66.1877 31.5514L66.4953 33.0195C68.2986 32.6417 69.4526 30.8724 69.0747 29.0691L67.6066 29.3768ZM66.1877 31.5514C65.1966 31.7591 64.2234 31.1233 64.0151 30.1294L62.547 30.437C62.9249 32.2403 64.692 33.3974 66.4953 33.0195L66.1877 31.5514ZM64.0151 30.1294C63.8068 29.1354 64.443 28.1624 65.434 27.9547L65.1264 26.4866C63.3231 26.8645 62.1691 28.6337 62.547 30.437L64.0151 30.1294ZM65.434 27.9547C66.4251 27.747 67.3983 28.3829 67.6066 29.3768L69.0747 29.0691C68.6968 27.2658 66.9297 26.1087 65.1264 26.4866L65.434 27.9547ZM29.2103 51.1693L31.8636 63.8314L33.3317 63.5237L30.6784 50.8617L29.2103 51.1693ZM33.258 50.3211L34.4254 55.8924L35.8935 55.5848L34.7261 50.0135L33.258 50.3211Z" fill="#C982A7"/>
</svg>
