<svg width="88" height="88" viewBox="0 0 88 88" fill="none" xmlns="http://www.w3.org/2000/svg">
<path d="M46.5702 15.7902L47.2632 15.5032L47.2632 15.5032L46.5702 15.7902ZM44.8277 11.5822L45.5206 11.2953L45.5206 11.2953L44.8277 11.5822ZM44.4456 11.1566L44.0949 11.8195L44.0949 11.8195L44.4456 11.1566ZM17.5695 16.2549C17.1822 16.4018 16.9872 16.8348 17.134 17.2221C17.2809 17.6094 17.7139 17.8044 18.1012 17.6575L17.5695 16.2549ZM16.6882 18.9455L16.6931 19.6955L16.6931 19.6955L16.6882 18.9455ZM43.1362 7.52719L43.0327 8.27001L43.1362 7.52719ZM47.5568 13.5783C47.557 13.9925 47.8929 14.3281 48.3071 14.3279C48.7214 14.3277 49.057 13.9917 49.0568 13.5775L47.5568 13.5783ZM15.1023 14.7268L14.9171 14.0001L14.9166 14.0002L15.1023 14.7268ZM13.696 17.1961L12.9868 17.4401L13.0087 17.5038L13.0417 17.5626L13.696 17.1961ZM49.3744 16.1808L48.7863 15.7154L48.7862 15.7154L49.3744 16.1808ZM52.2007 12.6094L51.6126 12.1439L51.6126 12.1439L52.2007 12.6094ZM52.6845 12.3044L52.8407 13.0379L52.8407 13.0379L52.6845 12.3044ZM76.2491 25.7581C76.5815 26.0052 77.0513 25.936 77.2984 25.6035C77.5455 25.2711 77.4763 24.8013 77.1439 24.5542L76.2491 25.7581ZM77.2562 27.3832L77.0465 28.1033L77.2562 27.3832ZM54.9361 9.17103L54.8326 9.91385L54.9361 9.17103ZM79.9348 23.7586L80.312 23.1103L80.3116 23.1101L79.9348 23.7586ZM80.6127 26.5182L81.1419 27.0496L81.1897 27.0021L81.2282 26.9467L80.6127 26.5182ZM46.6774 21.3465L47.3722 16.359L45.8865 16.152L45.1917 21.1396L46.6774 21.3465ZM47.2632 15.5032L45.5206 11.2953L44.1347 11.8692L45.8773 16.0771L47.2632 15.5032ZM44.7963 10.4937C43.97 10.0565 43.1203 9.70507 42.0183 9.55347C40.928 9.40347 39.6342 9.45488 37.9169 9.75799C34.5011 10.3609 29.2566 11.9901 20.3305 15.23L20.8423 16.64C29.78 13.3959 34.9083 11.8122 38.1777 11.2352C39.803 10.9483 40.9299 10.9179 41.8139 11.0395C42.6862 11.1595 43.3643 11.4331 44.0949 11.8195L44.7963 10.4937ZM20.3305 15.23C19.44 15.5533 18.52 15.8946 17.5695 16.2549L18.1012 17.6575C19.0453 17.2996 19.9587 16.9607 20.8423 16.64L20.3305 15.23ZM19.8436 15.8316C19.7245 16.6862 18.7109 18.1824 16.6834 18.1956L16.6931 19.6955C19.5397 19.677 21.118 17.5548 21.3292 16.0385L19.8436 15.8316ZM43.0327 8.27001C43.8829 8.38845 45.0289 9.01016 45.9752 10.0126C46.9121 11.0052 47.5561 12.2686 47.5568 13.5783L49.0568 13.5775C49.0558 11.7776 48.1809 10.1641 47.066 8.98301C45.9605 7.81181 44.522 6.96299 43.2396 6.78436L43.0327 8.27001ZM15.2875 15.4536C16.4509 15.1572 18.4022 14.4951 20.7272 13.7017C23.069 12.9026 25.8232 11.9582 28.635 11.0778C31.4483 10.1968 34.304 9.38474 36.8458 8.84847C39.4104 8.30739 41.5712 8.06642 43.0327 8.27001L43.2396 6.78436C41.5024 6.54236 39.1232 6.83497 36.5361 7.38078C33.9263 7.93141 31.0186 8.75955 28.1867 9.64631C25.3533 10.5336 22.5803 11.4844 20.2427 12.2821C17.8882 13.0856 16.0078 13.7221 14.9171 14.0001L15.2875 15.4536ZM16.6834 18.1956C15.4624 18.2035 14.7562 17.554 14.3503 16.8296L13.0417 17.5626C13.6421 18.6346 14.7923 19.7079 16.6931 19.6955L16.6834 18.1956ZM14.4052 16.9521C14.2537 16.5117 14.3566 16.201 14.5389 15.9622C14.7479 15.6886 15.0696 15.5093 15.2879 15.4535L14.9166 14.0002C14.3997 14.1322 13.7775 14.4877 13.3467 15.0519C12.8894 15.6508 12.6568 16.4808 12.9868 17.4401L14.4052 16.9521ZM45.5206 11.2953C45.3819 10.9602 45.1315 10.671 44.7963 10.4936L44.0949 11.8195C44.1046 11.8247 44.1222 11.8389 44.1347 11.8692L45.5206 11.2953ZM47.3722 16.359C47.4125 16.0695 47.3752 15.7739 47.2632 15.5032L45.8773 16.0771C45.8866 16.0996 45.8902 16.1256 45.8865 16.152L47.3722 16.359ZM49.2384 21.7033L49.9332 16.7158L48.4475 16.5088L47.7527 21.4963L49.2384 21.7033ZM49.9625 16.6462L52.7888 13.0748L51.6126 12.1439L48.7863 15.7154L49.9625 16.6462ZM52.8407 13.0379C53.6491 12.8658 54.3762 12.788 55.2481 12.911C56.1316 13.0356 57.2073 13.3728 58.6924 14.093C61.6795 15.5417 66.1797 18.4667 73.8904 24.0301L74.7681 22.8137C67.0674 17.2575 62.4679 14.257 59.3469 12.7434C57.7779 11.9825 56.5474 11.5794 55.4576 11.4257C54.3561 11.2703 53.4427 11.3761 52.5284 11.5708L52.8407 13.0379ZM73.8904 24.0301C74.6527 24.5801 75.4387 25.1558 76.2491 25.7581L77.1439 24.5542C76.3281 23.9478 75.5363 23.368 74.7681 22.8137L73.8904 24.0301ZM73.5865 23.3184C73.3752 24.8347 74.3134 27.3075 77.0465 28.1033L77.4659 26.6631C75.5191 26.0963 74.953 24.3801 75.0721 23.5254L73.5865 23.3184ZM55.0396 8.4282C53.7572 8.24954 52.1415 8.67288 50.758 9.49734C49.3628 10.3288 48.0801 11.6416 47.5873 13.3728L49.03 13.7835C49.3886 12.5238 50.3534 11.4846 51.5259 10.7859C52.7101 10.0802 53.9824 9.7954 54.8326 9.91385L55.0396 8.4282ZM80.3116 23.1101C79.3383 22.5447 77.7035 21.4185 75.6583 20.002C73.6277 18.5958 71.2202 16.9232 68.7372 15.2954C66.2554 13.6684 63.6849 12.0771 61.3249 10.8341C58.9855 9.60198 56.7768 8.67022 55.0396 8.4282L54.8326 9.91385C56.2941 10.1175 58.3068 10.9398 60.6259 12.1613C62.9243 13.3718 65.4493 14.9335 67.9147 16.5498C70.3788 18.1653 72.77 19.8264 74.8043 21.2352C76.8238 22.6338 78.5199 23.8039 79.5581 24.4071L80.3116 23.1101ZM77.0465 28.1033C78.8717 28.6348 80.2713 27.9167 81.1419 27.0496L80.0834 25.9868C79.495 26.5728 78.6382 27.0045 77.4659 26.6631L77.0465 28.1033ZM81.2282 26.9467C81.8078 26.1142 81.8109 25.2522 81.5347 24.5511C81.2745 23.8907 80.7732 23.3787 80.312 23.1103L79.5577 24.4069C79.7524 24.5202 80.0129 24.7806 80.1391 25.1009C80.2492 25.3805 80.2632 25.7075 79.9971 26.0897L81.2282 26.9467ZM52.7888 13.0748C52.8091 13.0491 52.83 13.0402 52.8407 13.0379L52.5284 11.5708C52.1575 11.6497 51.8376 11.8596 51.6126 12.1439L52.7888 13.0748ZM49.9332 16.7158C49.9369 16.6893 49.9474 16.6653 49.9625 16.6462L48.7862 15.7154C48.6045 15.9451 48.4878 16.2193 48.4475 16.5088L49.9332 16.7158Z" fill="#C982A7"/>
<path d="M38.145 75.6114L39.1277 68.5578M41.1162 76.0253L42.0988 68.9718M38.1761 75.434L38.1484 75.6329C37.6738 75.7934 37.2566 76.0609 36.9405 76.4126C36.5131 76.8881 36.2982 77.4868 36.3338 78.1027C36.3694 78.7187 36.6531 79.3124 37.1349 79.7788C37.6167 80.2451 38.2654 80.5542 38.9665 80.6513C39.6676 80.7484 40.3758 80.6273 40.966 80.3094C41.5561 79.9915 41.9903 79.4972 42.1916 78.9141C42.393 78.3309 42.3485 77.6963 42.0662 77.1225C41.8582 76.6996 41.5308 76.3299 41.1196 76.0468L41.1474 75.8479" stroke="#C982A7" stroke-width="1.5"/>
<path d="M45.4489 24.4366L48.0901 24.8045M45.4489 24.4366C44.5372 24.3096 43.9041 23.4465 44.0347 22.5087C44.1653 21.571 45.0103 20.9138 45.922 21.0408L48.5631 21.4087C49.4748 21.5357 50.108 22.3989 49.9773 23.3366C49.8467 24.2743 49.0017 24.9315 48.0901 24.8045M45.4489 24.4366C44.5372 24.3096 43.6923 24.9668 43.5616 25.9045C43.431 26.8422 44.0642 27.7054 44.9758 27.8324M48.0901 24.8045C49.0017 24.9315 49.6349 25.7946 49.5043 26.7324C49.3736 27.6701 48.5287 28.3273 47.617 28.2003M44.9758 27.8324L47.617 28.2003M44.9758 27.8324C44.0642 27.7054 43.2192 28.3626 43.0886 29.3003C42.9579 30.238 43.5911 31.1011 44.5028 31.2281M47.617 28.2003C48.5287 28.3273 49.1618 29.1904 49.0312 30.1281C48.9006 31.0659 48.0556 31.7231 47.1439 31.5961M44.5028 31.2281L47.1439 31.5961M44.5028 31.2281C43.5911 31.1011 42.7462 31.7583 42.6155 32.6961C42.4849 33.6338 43.118 34.4969 44.0297 34.6239M47.1439 31.5961C48.0556 31.7231 48.6888 32.5862 48.5581 33.5239C48.4275 34.4616 47.5825 35.1189 46.6709 34.9919M44.0297 34.6239L46.6709 34.9919M44.0297 34.6239C43.118 34.4969 42.2731 35.1541 42.1425 36.0918C42.0118 37.0296 42.645 37.8927 43.5566 38.0197M46.6709 34.9919C47.5825 35.1189 48.2157 35.982 48.0851 36.9197C47.9544 37.8574 47.1095 38.5146 46.1978 38.3876M43.5566 38.0197L46.1978 38.3876M43.5566 38.0197C42.645 37.8927 41.8 38.5499 41.6694 39.4876C41.5388 40.4253 42.1719 41.2885 43.0836 41.4155M46.1978 38.3876C47.1095 38.5146 47.7426 39.3778 47.612 40.3155C47.4814 41.2532 46.6364 41.9104 45.7247 41.7834M43.0836 41.4155L45.7247 41.7834M43.0836 41.4155C42.1719 41.2885 41.327 41.9457 41.1963 42.8834C41.0657 43.8211 41.6988 44.6843 42.6105 44.8113M45.7247 41.7834C46.6364 41.9104 47.2696 42.7735 47.1389 43.7113C47.0083 44.649 46.1633 45.3062 45.2517 45.1792M42.6105 44.8113L45.2517 45.1792M42.6105 44.8113C41.6988 44.6843 40.8539 45.3414 40.7233 46.2792C40.5926 47.2169 41.2258 48.08 42.1375 48.207M45.2517 45.1792C46.1633 45.3062 46.7965 46.1693 46.6659 47.107C46.5352 48.0448 45.6903 48.702 44.7786 48.575M42.1375 48.207L44.7786 48.575M42.1375 48.207C41.2258 48.08 40.3808 48.7372 40.2502 49.675C40.1196 50.6127 40.7527 51.4758 41.6644 51.6028M44.7786 48.575C45.6903 48.702 46.3234 49.5651 46.1928 50.5028C46.0622 51.4405 45.2172 52.0978 44.3056 51.9708M41.6644 51.6028L44.3056 51.9708M41.6644 51.6028C40.7527 51.4758 39.9078 52.133 39.7771 53.0707C39.6465 54.0084 40.2797 54.8716 41.1913 54.9986M44.3056 51.9708C45.2172 52.0978 45.8504 52.9609 45.7197 53.8986C45.5891 54.8363 44.7442 55.4935 43.8325 55.3665M41.1913 54.9986L43.8325 55.3665M41.1913 54.9986C40.2797 54.8716 39.4347 55.5288 39.3041 56.4665C39.1734 57.4042 39.8066 58.2674 40.7183 58.3944M43.8325 55.3665C44.7442 55.4935 45.3773 56.3567 45.2467 57.2944C45.116 58.2321 44.2711 58.8893 43.3594 58.7623M40.7183 58.3944L43.3594 58.7623M40.7183 58.3944C39.8066 58.2674 38.9616 58.9246 38.831 59.8623C38.7004 60.8 39.3335 61.6631 40.2452 61.7901M43.3594 58.7623C44.2711 58.8893 44.9043 59.7524 44.7736 60.6901C44.643 61.6279 43.798 62.2851 42.8864 62.1581M40.2452 61.7901L42.8864 62.1581M40.2452 61.7901C39.3335 61.6631 38.4886 62.3204 38.3579 63.2581C38.2273 64.1958 38.8605 65.0589 39.7721 65.1859M42.8864 62.1581C43.798 62.2851 44.4312 63.1482 44.3006 64.0859C44.1699 65.0237 43.325 65.6809 42.4133 65.5539M39.7721 65.1859L42.4133 65.5539M39.7721 65.1859C38.8605 65.0589 38.0155 65.7161 37.8849 66.6538C37.7542 67.5916 38.3874 68.4547 39.2991 68.5817L41.9402 68.9496C42.8519 69.0766 43.6969 68.4194 43.8275 67.4817C43.9581 66.544 43.325 65.6809 42.4133 65.5539" stroke="#F7B5CC" stroke-width="1.5"/>
<path d="M38.9998 81C38.9998 84 42.5003 84.4999 42.997 84.4999C55.3274 84.5 45.8263 64 62.3263 60" stroke="#C982A7" stroke-width="1.5" stroke-linecap="round" stroke-linejoin="round"/>
</svg>
