<svg width="40" height="40" viewBox="0 0 40 40" fill="none" xmlns="http://www.w3.org/2000/svg">
<path d="M19.527 3.00976L6.5304 5.9874C5.66867 6.18483 4.92067 6.7165 4.45094 7.46543C3.98121 8.21437 3.82823 9.11923 4.02566 9.98096L9.98094 35.9741C10.1784 36.8359 10.71 37.5839 11.459 38.0536C12.2079 38.5233 13.1128 38.6763 13.9745 38.4789L33.4694 34.0124C34.3311 33.815 35.0791 33.2833 35.5488 32.5344C36.0186 31.7855 36.1716 30.8806 35.9741 30.0189L31.5077 10.524L19.527 3.00976Z" stroke="#C982A7" stroke-width="1.5" stroke-linecap="round" stroke-linejoin="round"/>
<path d="M19.5264 3.00992L21.7596 12.7574L31.507 10.5241" stroke="#C982A7" stroke-width="1.5" stroke-linecap="round" stroke-linejoin="round"/>
<path d="M26.8706 20.136L13.874 23.1136" stroke="#F7B5CC" stroke-width="1.5" stroke-linecap="round" stroke-linejoin="round"/>
<path d="M28.3589 26.6341L15.3623 29.6118" stroke="#F7B5CC" stroke-width="1.5" stroke-linecap="round" stroke-linejoin="round"/>
<path d="M15.6339 15.8708L14.0093 16.243L12.3848 16.6152" stroke="#F7B5CC" stroke-width="1.5" stroke-linecap="round" stroke-linejoin="round"/>
</svg>
