<svg width="40" height="40" viewBox="0 0 40 40" fill="none" xmlns="http://www.w3.org/2000/svg">
<path d="M33.5325 9.4754C32.7506 8.69063 31.8222 8.06809 30.8004 7.64335C29.7786 7.21861 28.6834 7 27.5774 7C26.4714 7 25.3762 7.21861 24.3544 7.64335C23.3326 8.06809 22.4042 8.69063 21.6223 9.4754L19.9996 11.1033L18.3769 9.4754C16.7975 7.89096 14.6554 7.00082 12.4218 7.00082C10.1882 7.00082 8.04607 7.89096 6.46668 9.4754C4.88729 11.0599 4 13.2088 4 15.4496C4 17.6903 4.88729 19.8393 6.46668 21.4237L8.0894 23.0517L19.9996 35L31.9098 23.0517L33.5325 21.4237C34.3148 20.6393 34.9353 19.708 35.3587 18.6829C35.7821 17.6579 36 16.5592 36 15.4496C36 14.34 35.7821 13.2413 35.3587 12.2162C34.9353 11.1912 34.3148 10.2598 33.5325 9.4754V9.4754Z" stroke="#C982A7" stroke-width="1.5" stroke-linecap="round" stroke-linejoin="round"/>
<path d="M15 21H20H25" stroke="#F7B5CC" stroke-width="1.5" stroke-linecap="round" stroke-linejoin="round"/>
<path d="M20 26V21V16" stroke="#F7B5CC" stroke-width="1.5" stroke-linecap="round" stroke-linejoin="round"/>
</svg>
