<svg width="40" height="40" viewBox="0 0 40 40" fill="none" xmlns="http://www.w3.org/2000/svg">
<path d="M34 16.9091C34 27.7273 20 37 20 37C20 37 6 27.7273 6 16.9091C6 13.2202 7.475 9.68234 10.1005 7.07388C12.726 4.46542 16.287 3 20 3C23.713 3 27.274 4.46542 29.8995 7.07388C32.525 9.68234 34 13.2202 34 16.9091Z" stroke="#C982A7" stroke-width="2" stroke-linecap="round" stroke-linejoin="round"/>
<path d="M20 21C22.2091 21 24 19.2091 24 17C24 14.7909 22.2091 13 20 13C17.7909 13 16 14.7909 16 17C16 19.2091 17.7909 21 20 21Z" stroke="#F7B5CC" stroke-width="2" stroke-linecap="round" stroke-linejoin="round"/>
</svg>
