<svg width="40" height="48" viewBox="0 0 40 48" fill="none" xmlns="http://www.w3.org/2000/svg">
<path d="M39.4667 19.6364C39.4667 34.9091 19.7333 48 19.7333 48C19.7333 48 0 34.9091 0 19.6364C7.79868e-08 14.4285 2.07904 9.43389 5.77976 5.75136C9.48048 2.06883 14.4997 0 19.7333 0C24.9669 0 29.9862 2.06883 33.6869 5.75136C37.3876 9.43389 39.4667 14.4285 39.4667 19.6364Z" fill="#ED578A"/>
<path d="M19.3463 24.6417C22.9791 24.6417 25.9241 21.7112 25.9241 18.0962C25.9241 14.4813 22.9791 11.5508 19.3463 11.5508C15.7135 11.5508 12.7686 14.4813 12.7686 18.0962C12.7686 21.7112 15.7135 24.6417 19.3463 24.6417Z" fill="white"/>
</svg>
