<svg width="40" height="40" viewBox="0 0 40 40" fill="none" xmlns="http://www.w3.org/2000/svg">
<path d="M22.9626 10.7339C24.3187 11.0071 25.5649 11.6918 26.5419 12.7006C27.5188 13.7093 28.182 14.996 28.4466 16.3962M22.9626 5C25.78 5.32316 28.4072 6.62581 30.4128 8.69408C32.4185 10.7624 33.6835 13.4733 34 16.3818M32.6117 27.821V32.1214C32.6132 32.5206 32.534 32.9158 32.3791 33.2816C32.2242 33.6474 31.997 33.9757 31.7121 34.2456C31.4272 34.5155 31.0908 34.721 30.7245 34.8489C30.3583 34.9768 29.9701 35.0243 29.585 34.9884C25.3129 34.5091 21.2091 33.0018 17.6036 30.5876C14.2491 28.3867 11.4051 25.4502 9.2735 21.9867C6.92716 18.2471 5.46698 13.9893 5.01127 9.55846C4.97657 9.16206 5.0222 8.76254 5.14525 8.38534C5.26829 8.00814 5.46605 7.66152 5.72594 7.36756C5.98584 7.0736 6.30216 6.83874 6.65478 6.67792C7.00741 6.5171 7.3886 6.43385 7.77408 6.43348H11.9391C12.6129 6.42663 13.2661 6.67298 13.777 7.12661C14.2878 7.58024 14.6215 8.2102 14.7158 8.89906C14.8916 10.2753 15.2176 11.6266 15.6877 12.9271C15.8745 13.4402 15.9149 13.9978 15.8042 14.5339C15.6934 15.07 15.4362 15.562 15.0629 15.9518L13.2997 17.7723C15.2761 21.3611 18.154 24.3325 21.6298 26.3732L23.393 24.5526C23.7705 24.1672 24.2471 23.9016 24.7663 23.7873C25.2854 23.673 25.8255 23.7147 26.3224 23.9076C27.582 24.3929 28.8908 24.7295 30.2237 24.911C30.8981 25.0092 31.514 25.36 31.9543 25.8965C32.3946 26.4331 32.6285 27.118 32.6117 27.821Z" stroke="#C982A7" stroke-width="1.5" stroke-linecap="round" stroke-linejoin="round"/>
<path d="M22.9629 10.7339C24.3189 11.0071 25.5652 11.6918 26.5421 12.7006C27.5191 13.7093 28.1823 14.996 28.4469 16.3962M22.9629 5C25.7802 5.32316 28.4074 6.62581 30.4131 8.69408C32.4188 10.7624 33.6837 13.4733 34.0003 16.3818" stroke="#F7B5CC" stroke-width="1.5" stroke-linecap="round" stroke-linejoin="round"/>
</svg>
