<svg width="88" height="88" viewBox="0 0 88 88" fill="none" xmlns="http://www.w3.org/2000/svg">
<path d="M72.1966 17.281L72.5542 17.9403L72.1966 17.281ZM65.4193 21.6959L65.7766 22.3553L65.4193 21.6959ZM37.4794 29.9369C37.2486 29.593 36.7827 29.5013 36.4387 29.732C36.0948 29.9628 36.003 30.4288 36.2338 30.7727L37.4794 29.9369ZM41.4324 51.0644C41.4472 51.4784 41.7949 51.8019 42.2088 51.787C42.6228 51.7721 42.9463 51.4245 42.9314 51.0105L41.4324 51.0644ZM52.0028 30.7727C52.2336 30.4288 52.1419 29.9628 51.7979 29.732C51.4539 29.5013 50.988 29.593 50.7572 29.9369L52.0028 30.7727ZM45.3053 51.0105C45.2904 51.4245 45.6139 51.7721 46.0278 51.787C46.4418 51.8019 46.7894 51.4784 46.8043 51.0644L45.3053 51.0105ZM48.9592 75L48.4306 75.532C48.6717 75.7716 49.0437 75.8191 49.3372 75.6478C49.6308 75.4765 49.7724 75.1292 49.6824 74.8015L48.9592 75ZM48.4751 68.7471L49.0037 69.2792L48.4751 68.7471ZM52.348 50.9504L51.6523 50.6703L52.348 50.9504ZM50.4115 42.7736L49.7938 42.3482C49.6385 42.5738 49.6185 42.8661 49.7416 43.1107L50.4115 42.7736ZM56.2209 31.7108L55.5283 31.4229L56.2209 31.7108ZM68.3237 37.0017L68.2443 36.2559L68.3237 37.0017ZM80.9107 22.572L80.2794 22.9769L80.9107 22.572ZM73.1648 33.6481L72.5449 33.2261L73.1648 33.6481ZM81.8789 32.6728L82.327 33.2742L81.8789 32.6728ZM84.7836 20.648L84.1892 21.1054V21.1054L84.7836 20.648ZM64.8885 30.644L64.3255 30.1485L64.8885 30.644ZM63.7491 31.019L63.9699 30.3022L63.7491 31.019ZM33.3946 24.5609C33.1174 24.8687 33.1423 25.3429 33.4501 25.6201C33.7579 25.8973 34.2321 25.8725 34.5093 25.5647L33.3946 24.5609ZM53.2883 25.6106C53.5909 25.8935 54.0655 25.8776 54.3484 25.5751C54.6313 25.2725 54.6154 24.7979 54.3128 24.515L53.2883 25.6106ZM43.6342 67.1222C43.22 67.1222 42.8842 67.4579 42.8842 67.8722C42.8842 68.2864 43.22 68.6222 43.6342 68.6222V67.1222ZM15.8034 17.281L15.4458 17.9403L15.8034 17.281ZM22.5807 21.6959L22.2234 22.3553L22.5807 21.6959ZM39.0408 75L38.3176 74.8015C38.2276 75.1292 38.3692 75.4765 38.6628 75.6478C38.9563 75.8191 39.3283 75.7716 39.5694 75.532L39.0408 75ZM39.5249 68.7471L38.9963 69.2792L39.5249 68.7471ZM35.652 50.9504L36.3477 50.6703L35.652 50.9504ZM37.5885 42.7736L38.2584 43.1107C38.3815 42.8661 38.3615 42.5738 38.2062 42.3482L37.5885 42.7736ZM31.7791 31.7108L32.4717 31.4229L31.7791 31.7108ZM19.6763 37.0017L19.6159 37.7492L19.6763 37.0017ZM7.08936 22.572L7.72062 22.9769L7.08936 22.572ZM14.8352 33.6481L15.4551 33.2261L14.8352 33.6481ZM6.12113 32.6728L5.67299 33.2742H5.67299L6.12113 32.6728ZM3.21645 20.648L3.81084 21.1054V21.1054L3.21645 20.648ZM23.1115 30.644L23.6745 30.1485L23.1115 30.644ZM24.2509 31.019L24.0301 30.3022L24.2509 31.019ZM39.0577 67.8722L38.3549 68.1339L39.0577 67.8722ZM37.9561 63.0611L37.2158 63.1811L37.9561 63.0611ZM44.6019 63.8111C45.0161 63.8111 45.3519 63.4753 45.3519 63.0611C45.3519 62.6469 45.0161 62.3111 44.6019 62.3111V63.8111ZM42.6655 59.0012C43.0797 59.0012 43.4155 58.6654 43.4155 58.2512C43.4155 57.837 43.0797 57.5012 42.6655 57.5012V59.0012ZM37.3698 58.2512L36.6288 58.3671L37.3698 58.2512ZM71.8391 16.6218C70.7979 17.1864 70.3501 17.6388 69.6176 18.2084C68.8724 18.7879 67.6996 19.607 65.0619 21.0365L65.7766 22.3553C68.4642 20.8988 69.7109 20.0361 70.5384 19.3925C71.3787 18.7391 71.657 18.4269 72.5542 17.9403L71.8391 16.6218ZM65.0619 21.0365C63.2085 22.0409 61.671 21.7338 60.3824 21.0049C59.0309 20.2405 58.0161 19.0551 57.2339 18.2779L56.1766 19.342C56.8467 20.0077 58.0639 21.4169 59.6439 22.3105C61.2867 23.2397 63.3801 23.654 65.7766 22.3553L65.0619 21.0365ZM57.2339 18.2779C55.7101 16.764 51.6579 13.25 44.6024 13.25V14.75C51.1022 14.75 54.7957 17.97 56.1766 19.342L57.2339 18.2779ZM36.2338 30.7727C37.7609 33.0485 41.0495 40.413 41.4324 51.0644L42.9314 51.0105C42.5397 40.1135 39.1798 32.4711 37.4794 29.9369L36.2338 30.7727ZM50.7572 29.9369C49.0568 32.4711 45.697 40.1135 45.3053 51.0105L46.8043 51.0644C47.1872 40.413 50.4758 33.0485 52.0028 30.7727L50.7572 29.9369ZM49.6824 74.8015C49.4465 73.942 49.1408 72.6076 48.9892 71.4069C48.9131 70.8038 48.8797 70.2634 48.9046 69.8452C48.917 69.6362 48.9427 69.4808 48.9738 69.3739C49.0068 69.2603 49.0313 69.2518 49.0037 69.2792L47.9465 68.2151C47.7253 68.4349 47.6045 68.7109 47.5335 68.955C47.4606 69.2057 47.4235 69.4809 47.4072 69.7564C47.3745 70.3071 47.4198 70.9512 47.501 71.5947C47.6642 72.8871 47.9878 74.2943 48.236 75.1985L49.6824 74.8015ZM51.1615 60.0893C51.1615 59.9136 51.2125 59.4277 51.3198 58.7037C51.4239 58.0019 51.5733 57.1263 51.7528 56.2044C52.1159 54.3409 52.5891 52.3599 53.0437 51.2305L51.6523 50.6703C51.1387 51.9459 50.6437 54.0534 50.2805 55.9176C50.097 56.8595 49.9438 57.7575 49.8361 58.4836C49.7317 59.1877 49.6615 59.784 49.6615 60.0893H51.1615ZM53.0437 51.2305C53.3034 50.5856 53.3291 49.8131 53.2547 49.0582C53.1789 48.2887 52.9905 47.4582 52.7528 46.6503C52.2775 45.0346 51.581 43.429 51.0815 42.4364L49.7416 43.1107C50.2103 44.0422 50.8694 45.563 51.3138 47.0737C51.536 47.8291 51.6986 48.5617 51.762 49.2052C51.8268 49.8632 51.7799 50.3532 51.6523 50.6703L53.0437 51.2305ZM51.0292 43.199C53.1699 40.0905 55.9365 34.3493 56.9135 31.9986L55.5283 31.4229C54.5686 33.732 51.8488 39.3641 49.7938 42.3482L51.0292 43.199ZM56.9135 31.9986C56.9072 32.0137 56.8669 32.0903 56.7647 32.1424C56.6738 32.1888 56.6133 32.1746 56.64 32.1782C56.7236 32.1896 56.9282 32.2639 57.2975 32.4863C58.0182 32.9205 58.9482 33.6485 60.1242 34.4911C61.2659 35.3091 62.5874 36.1938 63.9784 36.8371C65.3655 37.4786 66.8831 37.9093 68.4031 37.7475L68.2443 36.2559C67.1017 36.3775 65.8704 36.0595 64.608 35.4756C63.3495 34.8936 62.121 34.0765 60.9978 33.2718C59.9091 32.4917 58.8594 31.6761 58.0715 31.2014C57.6865 30.9695 57.2545 30.7481 56.8425 30.6919C56.6214 30.6618 56.3483 30.6709 56.083 30.8063C55.8064 30.9474 55.6298 31.1788 55.5283 31.4229L56.9135 31.9986ZM73.9581 28.1415C72.8126 27.6233 71.0048 27.4709 69.2426 27.7401C67.4719 28.0107 65.5707 28.7335 64.3255 30.1485L65.4516 31.1395C66.3755 30.0895 67.8862 29.4648 69.4692 29.2229C71.0607 28.9798 72.5486 29.1503 73.3398 29.5082L73.9581 28.1415ZM63.9699 30.3022C62.5435 29.8628 60.6914 29.2287 59.2059 28.5792C58.459 28.2526 57.8352 27.9351 57.4092 27.6503C57.1945 27.5067 57.0601 27.3911 56.9872 27.309C56.9026 27.2137 56.9709 27.2444 56.9709 27.3819H55.4709C55.4709 27.785 55.6844 28.1009 55.8654 28.3047C56.058 28.5218 56.3093 28.7193 56.5755 28.8972C57.1112 29.2555 57.8298 29.6146 58.605 29.9535C60.1639 30.6352 62.076 31.2884 63.5283 31.7357L63.9699 30.3022ZM56.9709 27.3819C56.9709 27.4236 56.9581 27.5024 56.9025 27.5825C56.8503 27.6577 56.7928 27.6872 56.7802 27.6928C56.779 27.6934 56.8673 27.6629 57.1135 27.6728C57.5827 27.6917 58.2686 27.8365 59.0528 28.0463C59.8258 28.253 60.6224 28.5024 61.3168 28.7094C61.6582 28.8111 61.9783 28.9036 62.2472 28.9709C62.4914 29.032 62.7726 29.0938 62.9985 29.0938V27.5938C63.004 27.5938 62.9755 27.5934 62.8959 27.5791C62.8226 27.5659 62.7282 27.545 62.6113 27.5158C62.3772 27.4572 62.0846 27.373 61.7452 27.2719C61.078 27.073 60.2408 26.8113 59.4404 26.5972C58.6513 26.3861 57.8243 26.2002 57.1739 26.174C56.8604 26.1614 56.4873 26.1798 56.1646 26.325C55.9912 26.403 55.808 26.5287 55.6702 26.7273C55.529 26.9307 55.4709 27.1598 55.4709 27.3819H56.9709ZM80.2794 22.9769C80.7571 23.7216 80.7944 24.434 80.5648 25.0986C80.3249 25.7929 79.7746 26.479 79.008 27.0545C78.246 27.6266 77.3162 28.0537 76.3942 28.2543C75.4662 28.4562 74.6054 28.4169 73.9428 28.1348L73.3551 29.5149C74.3869 29.9542 75.5836 29.9657 76.7131 29.72C77.8485 29.473 78.9762 28.9541 79.9085 28.2541C80.8363 27.5576 81.6173 26.6458 81.9826 25.5885C82.3581 24.5015 82.2744 23.3088 81.5419 22.167L80.2794 22.9769ZM68.4031 37.7475C69.1656 37.6663 70.1664 37.2366 71.1105 36.6238C72.072 35.9997 73.0652 35.1273 73.7848 34.0702L72.5449 33.2261C71.9624 34.0818 71.1298 34.8229 70.2937 35.3657C69.4401 35.9198 68.6714 36.2104 68.2443 36.2559L68.4031 37.7475ZM73.7848 34.0702C74.7779 32.6113 75.2251 30.7316 74.3447 28.5447L72.9532 29.1049C73.6243 30.7717 73.2922 32.1282 72.5449 33.2261L73.7848 34.0702ZM72.8895 34.3458C73.7857 34.6995 75.2887 35.052 76.9816 35.0149C78.6808 34.9776 80.6204 34.5459 82.327 33.2742L81.4307 32.0714C80.039 33.1084 78.4285 33.4828 76.9487 33.5152C75.4626 33.5478 74.1577 33.2337 73.4402 32.9505L72.8895 34.3458ZM82.327 33.2742C84.4154 31.718 85.8555 29.3669 86.4472 26.974C87.0366 24.5904 86.8074 22.0483 85.3779 20.1906L84.1892 21.1054C85.2546 22.49 85.5096 24.5172 84.9911 26.614C84.4749 28.7014 83.2153 30.7416 81.4307 32.0714L82.327 33.2742ZM85.3779 20.1906C81.7756 15.5091 75.5677 14.5995 71.8391 16.6218L72.5542 17.9403C75.6035 16.2865 81.0138 16.9788 84.1892 21.1054L85.3779 20.1906ZM43.6732 73.9254C45.3929 73.8354 47.1156 74.2255 48.4306 75.532L49.4878 74.468C47.7771 72.7683 45.5813 72.3234 43.5948 72.4274L43.6732 73.9254ZM62.9985 29.0938C64.5971 29.0938 66.2554 28.1092 67.7976 26.9787C68.5893 26.3983 69.3948 25.7443 70.1903 25.0963C70.9914 24.4438 71.783 23.7972 72.5689 23.2105C74.1674 22.0171 75.6168 21.1722 76.8957 21.0136C77.5095 20.9375 78.0748 21.0214 78.6111 21.3031C79.1551 21.5889 79.7204 22.1056 80.2794 22.9769L81.5419 22.167C80.8827 21.1394 80.1405 20.4122 79.3087 19.9752C78.469 19.5341 77.5898 19.4161 76.7111 19.525C75.0051 19.7366 73.2776 20.8094 71.6715 22.0085C70.8552 22.6179 70.0375 23.2862 69.2431 23.9333C68.4431 24.5848 67.6667 25.2148 66.9107 25.7689C65.3576 26.9075 64.0573 27.5938 62.9985 27.5938V29.0938ZM64.3255 30.1485C64.1836 30.3098 64.0358 30.3225 63.9699 30.3022L63.5283 31.7357C64.2923 31.9711 65.0216 31.628 65.4516 31.1395L64.3255 30.1485ZM34.5093 25.5647C35.7706 24.164 38.5228 22.3278 41.9386 21.7749C45.3102 21.2291 49.3503 21.9281 53.2883 25.6106L54.3128 24.515C50.0209 20.5016 45.5084 19.6775 41.6989 20.2941C37.9337 20.9036 34.8766 22.9153 33.3946 24.5609L34.5093 25.5647ZM49.0037 69.2792C49.2883 68.9964 49.4915 68.5464 49.6451 68.1339L48.2395 67.6104C48.17 67.797 48.1051 67.9449 48.047 68.0551C48.0182 68.1096 47.9936 68.15 47.9741 68.1785C47.954 68.2078 47.9441 68.2174 47.9465 68.2151L49.0037 69.2792ZM49.6451 68.1339C50.0671 67.0009 50.4437 65.1943 50.7125 63.6134C50.9794 62.0431 51.1615 60.5657 51.1615 60.0893H49.6615C49.6615 60.4187 49.5039 61.7725 49.2337 63.362C48.9653 64.941 48.6072 66.6229 48.2395 67.6104L49.6451 68.1339ZM48.9423 67.1222H43.6342V68.6222H48.9423V67.1222ZM15.4458 17.9403C16.343 18.4269 16.6213 18.7391 17.4616 19.3925C18.2891 20.0361 19.5358 20.8988 22.2234 22.3553L22.9381 21.0365C20.3004 19.607 19.1276 18.7879 18.3824 18.2084C17.6499 17.6388 17.2021 17.1864 16.161 16.6218L15.4458 17.9403ZM22.2234 22.3553C24.6199 23.654 26.7133 23.2397 28.3561 22.3105C29.9361 21.4169 31.1533 20.0077 31.8234 19.342L30.7661 18.2779C29.9839 19.0551 28.9691 20.2405 27.6176 21.0049C26.329 21.7338 24.7915 22.0409 22.9381 21.0365L22.2234 22.3553ZM31.8234 19.342C33.2043 17.97 36.8978 14.75 43.3976 14.75V13.25C36.3422 13.25 32.2899 16.764 30.7661 18.2779L31.8234 19.342ZM39.764 75.1985C40.0122 74.2943 40.3358 72.8871 40.499 71.5947C40.5802 70.9512 40.6255 70.3071 40.5928 69.7564C40.5765 69.4809 40.5394 69.2057 40.4665 68.955C40.3955 68.7109 40.2747 68.4349 40.0535 68.2151L38.9963 69.2792C38.9687 69.2518 38.9932 69.2603 39.0262 69.3739C39.0573 69.4808 39.083 69.6362 39.0954 69.8452C39.1203 70.2634 39.0869 70.8038 39.0108 71.4069C38.8592 72.6076 38.5535 73.942 38.3176 74.8015L39.764 75.1985ZM36.3477 50.6703C36.2201 50.3532 36.1732 49.8632 36.238 49.2052C36.3014 48.5617 36.464 47.8291 36.6862 47.0737C37.1306 45.563 37.7897 44.0422 38.2584 43.1107L36.9185 42.4364C36.419 43.429 35.7225 45.0346 35.2472 46.6503C35.0095 47.4582 34.8211 48.2887 34.7453 49.0582C34.6709 49.8131 34.6967 50.5856 34.9563 51.2305L36.3477 50.6703ZM38.2062 42.3482C36.1512 39.3641 33.4314 33.732 32.4717 31.4229L31.0865 31.9986C32.0635 34.3493 34.8301 40.0905 36.9708 43.199L38.2062 42.3482ZM32.4717 31.4229C32.3838 31.2116 32.2336 30.9808 31.9764 30.8288C31.7124 30.6726 31.4343 30.6575 31.2061 30.6951C30.8072 30.7608 30.42 31.0123 30.1107 31.2381C29.773 31.4846 29.3874 31.8104 28.979 32.1568C28.5629 32.5097 28.1085 32.8968 27.6071 33.2929C25.5884 34.8879 22.9477 36.5137 19.7367 36.2541L19.6159 37.7492C23.4183 38.0566 26.4481 36.1204 28.537 34.4699C29.0625 34.0547 29.5373 33.6502 29.9493 33.3008C30.369 32.9448 30.7104 32.6575 30.9951 32.4496C31.136 32.3468 31.2481 32.2746 31.3358 32.2273C31.4284 32.1775 31.4618 32.1732 31.4499 32.1751C31.4267 32.1789 31.3265 32.1871 31.213 32.1199C31.1063 32.0569 31.0792 31.9809 31.0865 31.9986L32.4717 31.4229ZM14.7484 29.4609C15.6152 28.9195 17.0476 28.7414 18.5911 29.0377C20.1184 29.331 21.5997 30.0614 22.5484 31.1395L23.6745 30.1485C22.4541 28.7617 20.6414 27.904 18.8739 27.5646C17.1225 27.2283 15.2593 27.3731 13.9537 28.1887L14.7484 29.4609ZM24.4717 31.7357C25.924 31.2884 27.8361 30.6352 29.395 29.9535C30.1703 29.6146 30.8888 29.2555 31.4245 28.8972C31.6907 28.7193 31.942 28.5218 32.1346 28.3047C32.3156 28.1009 32.5291 27.785 32.5291 27.3819H31.0291C31.0291 27.2444 31.0974 27.2137 31.0128 27.309C30.9399 27.3911 30.8055 27.5067 30.5908 27.6503C30.1648 27.9351 29.541 28.2526 28.7941 28.5792C27.3086 29.2287 25.4565 29.8628 24.0301 30.3022L24.4717 31.7357ZM32.5291 27.3819C32.5291 27.1598 32.471 26.9307 32.3298 26.7273C32.192 26.5287 32.0088 26.403 31.8354 26.325C31.5128 26.1798 31.1396 26.1614 30.8261 26.174C30.1757 26.2002 29.3488 26.3861 28.5596 26.5972C27.7592 26.8113 26.922 27.073 26.2548 27.2719C25.9154 27.373 25.6228 27.4572 25.3887 27.5158C25.2718 27.545 25.1774 27.5659 25.1041 27.5791C25.0245 27.5934 24.996 27.5938 25.0015 27.5938V29.0938C25.2274 29.0938 25.5086 29.032 25.7528 28.9709C26.0217 28.9036 26.3418 28.8111 26.6832 28.7094C27.3776 28.5024 28.1742 28.253 28.9472 28.0463C29.7314 27.8365 30.4173 27.6917 30.8865 27.6728C31.1327 27.6629 31.221 27.6934 31.2198 27.6928C31.2072 27.6872 31.1497 27.6577 31.0975 27.5825C31.0419 27.5024 31.0291 27.4235 31.0291 27.3819H32.5291ZM6.4581 22.167C5.72559 23.3088 5.64191 24.5015 6.01743 25.5885C6.38272 26.6458 7.16371 27.5576 8.09146 28.2541C9.02383 28.9541 10.1515 29.473 11.2869 29.72C12.4164 29.9657 13.6131 29.9542 14.6449 29.5149L14.0572 28.1348C13.3946 28.4169 12.5338 28.4562 11.6058 28.2543C10.6838 28.0537 9.75402 27.6266 8.99201 27.0545C8.22537 26.479 7.67506 25.7929 7.4352 25.0986C7.20557 24.434 7.24289 23.7216 7.72062 22.9769L6.4581 22.167ZM19.7367 36.2541C19.3227 36.2206 18.5629 35.9376 17.7072 35.3783C16.8722 34.8326 16.039 34.0837 15.4551 33.2261L14.2152 34.0702C14.9335 35.1254 15.9245 36.0051 16.8865 36.6339C17.8277 37.249 18.8374 37.6863 19.6159 37.7492L19.7367 36.2541ZM15.4551 33.2261C14.7078 32.1282 14.3757 30.7717 15.0468 29.1049L13.6553 28.5447C12.7749 30.7316 13.2221 32.6113 14.2152 34.0702L15.4551 33.2261ZM14.5598 32.9505C13.8423 33.2337 12.5374 33.5478 11.0513 33.5152C9.57156 33.4828 7.96097 33.1084 6.56927 32.0714L5.67299 33.2742C7.37961 34.5459 9.31919 34.9776 11.0184 35.0149C12.7114 35.052 14.2143 34.6995 15.1105 34.3458L14.5598 32.9505ZM6.56927 32.0714C4.78471 30.7416 3.52508 28.7014 3.00891 26.614C2.49045 24.5172 2.74538 22.49 3.81084 21.1054L2.62206 20.1906C1.19256 22.0483 0.963378 24.5904 1.55277 26.974C2.14446 29.3669 3.58465 31.718 5.67299 33.2742L6.56927 32.0714ZM3.81084 21.1054C6.98623 16.9788 12.3965 16.2865 15.4458 17.9403L16.161 16.6218C12.4323 14.5995 6.22446 15.5091 2.62206 20.1906L3.81084 21.1054ZM44.4053 72.4274C42.4187 72.3234 40.2229 72.7683 38.5122 74.468L39.5694 75.532C40.8844 74.2255 42.6071 73.8354 44.3268 73.9254L44.4053 72.4274ZM25.0015 27.5938C23.9428 27.5938 22.6425 26.9075 21.0893 25.7689C20.3333 25.2148 19.5569 24.5848 18.7569 23.9333C17.9625 23.2862 17.1448 22.6179 16.3285 22.0085C14.7224 20.8094 12.9949 19.7366 11.2889 19.525C10.4102 19.4161 9.53099 19.5341 8.69134 19.9752C7.8595 20.4122 7.11735 21.1394 6.4581 22.167L7.72062 22.9769C8.27964 22.1056 8.84487 21.5889 9.38895 21.3031C9.92522 21.0214 10.4905 20.9375 11.1043 21.0136C12.3832 21.1722 13.8326 22.0171 15.4311 23.2105C16.2171 23.7972 17.0086 24.4438 17.8097 25.0963C18.6052 25.7443 19.4107 26.3983 20.2024 26.9787C21.7446 28.1092 23.4029 29.0938 25.0015 29.0938V27.5938ZM22.5484 31.1395C22.9784 31.628 23.7077 31.9711 24.4717 31.7357L24.0301 30.3022C23.9642 30.3225 23.8164 30.3097 23.6745 30.1485L22.5484 31.1395ZM40.0535 68.2151C40.0559 68.2174 40.046 68.2078 40.0259 68.1785C40.0064 68.15 39.9818 68.1096 39.9531 68.0551C39.8949 67.9449 39.83 67.797 39.7605 67.6104L38.3549 68.1339C38.5085 68.5464 38.7117 68.9964 38.9963 69.2792L40.0535 68.2151ZM43.3976 14.75H44.6024V13.25H43.3976V14.75ZM39.7605 67.6104C39.3582 66.5301 38.9694 64.6253 38.6964 62.9411L37.2158 63.1811C37.4884 64.8638 37.8956 66.9007 38.3549 68.1339L39.7605 67.6104ZM38.6964 62.9411C38.4674 61.5277 38.3385 60.3848 38.3385 60.0893H36.8385C36.8385 60.5262 36.9902 61.7894 37.2158 63.1811L38.6964 62.9411ZM37.9561 63.8111H44.6019V62.3111H37.9561V63.8111ZM38.3385 60.0893C38.3385 59.7427 38.2468 59.0049 38.1108 58.1353L36.6288 58.3671C36.7688 59.262 36.8385 59.8806 36.8385 60.0893H38.3385ZM38.1108 58.1353C37.7709 55.9619 37.0721 52.4695 36.3477 50.6703L34.9563 51.2305C35.6096 52.8532 36.2884 56.1907 36.6288 58.3671L38.1108 58.1353ZM42.6655 57.5012H37.3698V59.0012H42.6655V57.5012Z" fill="#C982A7"/>
<path d="M37.4792 29.937C37.2484 29.593 36.7825 29.5013 36.4386 29.7321C36.0946 29.9629 36.0029 30.4288 36.2337 30.7727L37.4792 29.937ZM41.4322 51.0644C41.4471 51.4784 41.7947 51.8019 42.2086 51.787C42.6226 51.7721 42.9461 51.4245 42.9312 51.0105L41.4322 51.0644ZM52.0026 30.7727C52.2334 30.4288 52.1417 29.9629 51.7977 29.7321C51.4538 29.5013 50.9878 29.593 50.757 29.937L52.0026 30.7727ZM45.3051 51.0105C45.2902 51.4245 45.6137 51.7721 46.0276 51.787C46.4416 51.8019 46.7892 51.4784 46.8041 51.0644L45.3051 51.0105ZM36.2337 30.7727C37.7607 33.0485 41.0493 40.413 41.4322 51.0644L42.9312 51.0105C42.5395 40.1135 39.1796 32.4711 37.4792 29.937L36.2337 30.7727ZM50.757 29.937C49.0567 32.4711 45.6968 40.1135 45.3051 51.0105L46.8041 51.0644C47.187 40.413 50.4756 33.0485 52.0026 30.7727L50.757 29.937Z" fill="#F7B5CC"/>
</svg>
