<svg width="40" height="40" viewBox="0 0 40 40" fill="none" xmlns="http://www.w3.org/2000/svg">
<path fill-rule="evenodd" clip-rule="evenodd" d="M31.6739 8.17848C30.1437 6.63819 28.323 5.41686 26.3174 4.58525C24.3118 3.75363 22.1611 3.32826 19.99 3.33378C10.8857 3.33378 3.4742 10.7434 3.47052 19.8514C3.47052 22.7622 4.23043 25.6032 5.67483 28.1093L3.33252 36.6671L12.089 34.3689C14.5112 35.6874 17.2248 36.3788 19.9826 36.38H19.99C29.0924 36.38 36.5039 28.9704 36.5076 19.8624C36.5138 17.6921 36.0899 15.5421 35.2602 13.5366C34.4305 11.5312 33.2116 9.71003 31.6739 8.17848ZM19.99 33.5924H19.9844C17.5253 33.5927 15.1115 32.9311 12.9962 31.677L12.4957 31.3789L7.29954 32.7424L8.68505 27.6769L8.35938 27.158C6.98451 24.9692 6.25669 22.4362 6.25995 19.8514C6.26363 12.2817 12.4221 6.1232 19.9955 6.1232C21.7991 6.1192 23.5857 6.47295 25.2517 7.164C26.9177 7.85504 28.4301 8.86965 29.7014 10.1491C30.9795 11.4225 31.9926 12.9365 32.682 14.6037C33.3715 16.2709 33.7236 18.0583 33.7181 19.8624C33.7145 27.4321 27.556 33.5924 19.99 33.5924ZM27.521 23.3087C27.107 23.1008 25.0794 22.1035 24.7003 21.9655C24.3231 21.8275 24.049 21.7595 23.773 22.1716C23.497 22.5838 22.7058 23.513 22.4647 23.789C22.2237 24.065 21.9827 24.0981 21.5705 23.892C21.1584 23.6859 19.828 23.2498 18.2512 21.8441C17.0239 20.7493 16.1959 19.3987 15.9549 18.9847C15.7138 18.5707 15.9291 18.3481 16.137 18.142C16.3229 17.958 16.5492 17.66 16.7553 17.4189C16.9613 17.1779 17.0294 17.0068 17.1674 16.7308C17.3054 16.4548 17.2373 16.2137 17.1325 16.0076C17.0294 15.7997 16.2033 13.7684 15.8592 12.9422C15.5261 12.1418 15.1857 12.2485 14.9318 12.2375C14.6688 12.2267 14.4057 12.2218 14.1425 12.2228C13.9332 12.2281 13.7273 12.2766 13.5376 12.3653C13.3479 12.4539 13.1786 12.5808 13.0403 12.738C12.6613 13.152 11.5959 14.1492 11.5959 16.1806C11.5959 18.2119 13.0753 20.1752 13.2814 20.4512C13.4874 20.7272 16.1922 24.8948 20.3322 26.6833C21.3184 27.1083 22.0875 27.3622 22.6855 27.5536C23.6736 27.8682 24.5734 27.8222 25.2855 27.7173C26.0785 27.5996 27.7271 26.7201 28.0712 25.7559C28.4153 24.7918 28.4153 23.9656 28.3122 23.7926C28.2092 23.6197 27.9314 23.5148 27.521 23.3087Z" fill="#C982A7"/>
<path d="M24.7001 21.9655C25.0792 22.1035 27.1068 23.1008 27.5208 23.3087C27.9311 23.5148 28.209 23.6197 28.312 23.7926C28.4151 23.9656 28.4151 24.7918 28.071 25.7559C27.7269 26.7201 26.0783 27.5996 25.2852 27.7173C24.5732 27.8222 23.6734 27.8682 22.6853 27.5536C22.0873 27.3622 21.3182 27.1083 20.332 26.6833C16.192 24.8948 13.4872 20.7272 13.2811 20.4512L13.2757 20.444C13.0506 20.1427 11.5957 18.1951 11.5957 16.1806C11.5957 14.1492 12.6611 13.152 13.0401 12.738C13.1784 12.5808 13.3477 12.4539 13.5374 12.3653C13.727 12.2766 13.933 12.2281 14.1423 12.2228C14.4054 12.2218 14.6686 12.2267 14.9316 12.2375C15.1855 12.2485 15.5259 12.1418 15.859 12.9422C16.203 13.7684 17.0292 15.7997 17.1322 16.0076C17.2371 16.2137 17.3052 16.4548 17.1672 16.7308C17.0292 17.0067 16.9611 17.1779 16.755 17.4189C16.549 17.6599 16.3226 17.958 16.1368 18.142C15.9289 18.3481 15.7136 18.5707 15.9546 18.9847C16.1957 19.3987 17.0237 20.7493 18.251 21.8441C19.8278 23.2498 21.1581 23.6859 21.5703 23.892C21.9825 24.0981 22.2235 24.065 22.4645 23.789C22.7056 23.513 23.4968 22.5838 23.7728 22.1716C24.0488 21.7594 24.3229 21.8275 24.7001 21.9655Z" fill="#F7B5CC"/>
</svg>
