<svg width="194" height="434" viewBox="0 0 194 434" fill="none" xmlns="http://www.w3.org/2000/svg">
<path d="M46.8018 275.466C51.5168 267.589 56.5803 259.237 55.844 250.357C54.9042 238.991 44.7811 229.887 41.1392 218.955C33.7573 196.794 54.117 174.751 54.8219 151.663C55.6091 126.03 32.7117 105.153 22.0247 81.2995C13.6169 62.5394 12.9316 41.1792 20.1176 22.0329C22.432 15.8635 25.5649 9.76993 25.7528 3.27978C25.8155 1.11065 25.514 -0.989504 24.9031 -3H-1.4248V377.818C12.8846 342.795 26.9942 308.537 46.8018 275.466Z" fill="#A14574"/>
<path d="M6.23917 104.899C32.8054 121.9 45.2912 150.596 58.7494 176.935C72.205 203.274 90.6782 230.895 121.768 240.268C139.602 245.646 159.951 244.347 176.299 252.604C182.107 255.535 188.145 259.476 190.495 264.994H-3.38281V101.163C0.216609 101.91 3.47852 103.132 6.23917 104.899Z" fill="#C982A7"/>
<path d="M6.23917 430.145C32.8054 412.607 65.95 424.892 79.4082 397.721C92.8638 370.55 111.337 342.057 142.427 332.388C204.829 312.975 195.195 279.998 190.495 264.994H-3.38281V434C0.216608 433.229 3.47852 431.969 6.23917 430.145Z" fill="#C982A7"/>
</svg>
