<svg width="104" height="270" viewBox="0 0 104 270" fill="none" xmlns="http://www.w3.org/2000/svg">
<g clip-path="url(#clip0)">
<path d="M42.8018 275.466C47.5168 267.589 52.5803 259.237 51.844 250.357C50.9042 238.991 40.7811 229.887 37.1392 218.955C29.7573 196.794 50.117 174.751 50.8219 151.663C51.6091 126.03 28.7117 105.153 18.0247 81.2995C9.61688 62.5394 8.93157 41.1792 16.1176 22.0329C18.432 15.8635 21.5649 9.76993 21.7528 3.27978C21.8155 1.11065 21.514 -0.989504 20.9031 -3H-5.4248V377.818C8.88457 342.795 22.9942 308.537 42.8018 275.466V275.466Z" fill="#A14574"/>
<path d="M-12.378 131.737C14.1882 148.738 26.6741 177.433 40.1322 203.772C53.5879 230.112 72.061 257.732 103.151 267.105C120.984 272.483 141.334 271.185 157.681 279.441C163.49 282.372 169.528 286.313 171.878 291.832H-22V128C-18.4006 128.748 -15.1387 129.969 -12.378 131.737Z" fill="#C982A7"/>
<path d="M2.23917 430.145C28.8054 412.607 61.95 424.892 75.4082 397.721C88.8638 370.55 107.337 342.057 138.427 332.388C200.829 312.975 191.195 279.998 186.495 264.994H-7.38281V434C-3.78339 433.229 -0.521477 431.969 2.23917 430.145Z" fill="#C982A7"/>
<path d="M37.1082 198.698L36.7428 197.575C36.345 196.348 36.1208 195.179 35.9035 194.045C35.5864 192.398 35.2866 190.842 34.4949 189.202C32.9429 185.985 30.8853 183.278 28.3834 181.158C27.7488 180.617 27.0673 180.101 26.407 179.6C25.1893 178.671 23.9263 177.711 22.8596 176.552C17.4655 170.694 18.3826 161.616 20.0993 155.03C20.4893 153.527 20.9351 152.002 21.3673 150.525C23.0009 144.935 24.6918 139.154 23.8294 133.435L23.6889 132.51L24.4597 133.039C28.5465 135.84 31.6711 140.385 33.2622 145.838C34.5788 150.346 34.9082 155.444 34.2704 161.431L34.1627 162.395C33.9184 164.577 33.6615 166.836 34.1632 168.953C34.5312 170.504 35.3063 171.967 36.0592 173.38C36.3906 174.009 36.7249 174.638 37.0269 175.277C38.9267 179.291 39.7582 183.637 39.5036 188.201C39.3308 191.277 38.6587 194.434 37.5118 197.59L37.1082 198.698ZM24.7504 134.253C25.339 139.834 23.719 145.379 22.1479 150.753C21.7184 152.224 21.2725 153.744 20.8852 155.235C19.2166 161.623 18.3126 170.416 23.4562 176.005C24.4739 177.108 25.7067 178.046 26.9001 178.954C27.5665 179.459 28.2571 179.986 28.9099 180.538C31.4998 182.733 33.625 185.528 35.2272 188.847C36.063 190.584 36.387 192.267 36.7006 193.893C36.8385 194.611 36.9799 195.346 37.1662 196.097C38.0321 193.421 38.5454 190.758 38.6922 188.155C38.9417 183.73 38.1344 179.514 36.2944 175.626C35.9957 174.996 35.6676 174.378 35.3424 173.761C34.5674 172.301 33.7674 170.791 33.373 169.14C32.8378 166.885 33.1049 164.557 33.359 162.304L33.464 161.346C34.0898 155.466 33.769 150.468 32.485 146.067C31.0443 141.135 28.3157 136.974 24.7504 134.253V134.253Z" fill="#E8C9D9"/>
<path d="M20.2565 221.986L20.4954 221.267C22.3199 215.714 32.4361 210.532 38.0681 210.094C39.2939 209.995 40.5078 210.117 41.68 210.231C43.703 210.426 45.616 210.615 47.489 209.752C48.9635 209.078 50.3329 207.807 51.6531 206.578C52.7707 205.543 53.926 204.47 55.1727 203.713C60.7732 200.325 67.39 198.653 73.8058 199.006C76.7122 199.169 80.133 199.041 80.7569 196.633L81.7305 192.877L81.5554 196.754C81.1638 205.399 75.1701 213.385 66.975 216.174C64.8431 216.899 62.5984 217.285 60.4275 217.661C58.3599 218.016 56.2214 218.385 54.2154 219.044C52.9241 219.467 51.6364 220.024 50.3898 220.567C47.8408 221.671 45.2039 222.816 42.3635 222.898C39.7513 222.974 37.3075 222.134 34.9475 221.322C32.7225 220.563 30.4254 219.773 28.0551 219.792C26.3463 219.805 24.9102 220.36 23.3919 220.949C22.6194 221.246 21.8206 221.555 20.987 221.785L20.2565 221.986V221.986ZM73.7593 199.817C67.5069 199.474 61.0552 201.104 55.5949 204.408C54.4152 205.122 53.2918 206.164 52.2062 207.175C50.8367 208.446 49.4209 209.76 47.8292 210.491C45.7539 211.446 43.6446 211.238 41.6007 211.038C40.4643 210.928 39.2861 210.812 38.1313 210.902C32.973 211.304 23.9329 215.781 21.5736 220.755C22.0912 220.581 22.5993 220.383 23.0986 220.192C24.6169 219.602 26.191 218.993 28.0482 218.979C30.558 218.959 32.9239 219.771 35.2089 220.556C37.5059 221.343 39.8778 222.158 42.3387 222.086C45.025 222.008 47.4742 220.945 50.0672 219.822C51.3314 219.272 52.6367 218.706 53.9603 218.27C56.0252 217.595 58.1932 217.222 60.2903 216.86C62.4288 216.491 64.641 216.109 66.7141 215.403C74.0418 212.91 79.5416 206.099 80.5835 198.468C79.0694 199.88 76.2437 199.956 73.7593 199.817V199.817Z" fill="#E8C9D9"/>
<path d="M9.31291 239.712L8.68993 238.942C7.13682 237.013 5.25648 236.494 3.2626 235.945C1.98608 235.59 0.661704 235.222 -0.678598 234.481C-1.11834 234.237 -1.73443 233.836 -2.01332 233.172C-2.2483 232.597 -2.17255 231.99 -2.10382 231.454C-2.08182 231.278 -2.05983 231.102 -2.04664 230.93C-1.91673 228.912 -3.33071 227.303 -4.83026 225.601C-5.36592 224.989 -5.92281 224.36 -6.39715 223.711C-8.17155 221.275 -8.87221 218.27 -9.24163 216.221C-11.1396 205.735 -8.73175 194.709 -2.63074 185.968L-1.93706 186.385C-2.8987 188.26 -2.76468 190.716 -1.52234 193.893C-1.32804 194.389 -1.12199 194.882 -0.915831 195.378C-0.0723013 197.403 0.799835 199.498 0.827337 201.744C0.837659 202.794 0.660721 203.831 0.485774 204.833C0.339712 205.695 0.185524 206.586 0.161351 207.456C0.0626978 211.085 2.10851 214.347 4.08613 217.502C4.78675 218.623 5.51517 219.784 6.13981 220.948C7.24851 223.014 7.58566 224.856 7.94357 226.808C8.05113 227.39 8.16215 227.989 8.29478 228.62L8.37274 228.983C9.04474 232.137 9.7434 235.4 9.41113 238.727L9.31291 239.712V239.712ZM4.58533 235.476C6.0391 235.912 7.41906 236.472 8.66868 237.705C8.78727 234.821 8.17314 231.944 7.5791 229.153L7.50114 228.79C7.36538 228.153 7.25413 227.544 7.14633 226.954C6.78498 224.984 6.47236 223.284 5.42309 221.333C4.81095 220.192 4.09173 219.042 3.39736 217.933C1.35469 214.676 -0.75621 211.308 -0.649322 207.433C-0.623772 206.504 -0.467357 205.586 -0.313193 204.694C-0.138485 203.684 0.0258705 202.73 0.0144887 201.751C-0.00872468 199.666 -0.852173 197.644 -1.66703 195.692C-1.87335 195.19 -2.08256 194.692 -2.27998 194.189C-3.11795 192.04 -3.47925 190.183 -3.35905 188.578C-8.3 196.76 -10.151 206.643 -8.44431 216.078C-7.8768 219.208 -7.01768 221.482 -5.73933 223.234C-5.28662 223.851 -4.74488 224.468 -4.21851 225.066C-2.67907 226.817 -1.08458 228.628 -1.23814 230.983C-1.25085 231.173 -1.27245 231.363 -1.29694 231.557C-1.35829 232.036 -1.41746 232.486 -1.26208 232.858C-1.12568 233.187 -0.815227 233.479 -0.285179 233.77C0.970828 234.466 2.24729 234.818 3.47902 235.162C3.85269 235.264 4.22337 235.367 4.58533 235.476V235.476Z" fill="#E8C9D9"/>
<path d="M-3.78003 271.584L-4.52451 271.262C-1.37786 264 3.76763 258.913 11.6693 255.248C13.0585 254.605 14.4929 253.982 15.8832 253.378C21.0925 251.117 26.4779 248.783 30.5469 244.825C31.8309 243.574 33.0558 242.114 34.2434 240.7C37.3776 236.96 40.6181 233.09 45.4419 232.501L46.6842 232.349L45.7693 233.201C43.7137 235.111 42.0048 237.338 40.6915 239.818C39.5165 242.036 38.6646 244.462 37.8402 246.808C37.0049 249.189 36.142 251.649 34.9358 253.921C30.5493 262.196 21.3116 267.716 11.9513 267.661C10.9868 267.657 9.92547 267.582 8.80475 267.505C3.88759 267.159 -1.68642 266.771 -3.77425 271.578C-3.77721 271.578 -3.77714 271.581 -3.78003 271.584V271.584ZM44.2447 233.557C40.4411 234.569 37.7238 237.808 34.8628 241.223C33.6666 242.65 32.4273 244.128 31.1114 245.407C26.9384 249.468 21.4826 251.833 16.2058 254.123C14.8213 254.724 13.3899 255.344 12.0094 255.983C5.60258 258.956 1.05503 262.882 -2.05525 268.179C0.878089 266.136 5.20357 266.438 8.86313 266.693C9.96903 266.771 11.0155 266.843 11.9533 266.851C21.0227 266.902 29.9713 261.555 34.2195 253.543C35.3944 251.321 36.2492 248.892 37.0734 246.541C37.9089 244.165 38.7719 241.709 39.9751 239.439C41.119 237.278 42.5527 235.305 44.2447 233.557V233.557Z" fill="#E8C9D9"/>
<path d="M-3.9846 202.671C-3.78446 205.491 -4.46374 208.378 -3.9077 211.191C-3.23761 214.606 -1.61023 217.204 0.0309224 220.204C0.86712 221.734 1.15472 223.497 1.94869 225.001C2.64269 226.318 3.59431 227.393 4.55579 228.504C6.91681 231.239 7.74128 234.546 8.55433 237.981C8.59155 238.152 8.84296 238.122 8.85318 237.95C8.96536 235.712 8.20116 232.771 7.22226 230.789C6.6417 229.608 5.50355 228.66 4.68493 227.676C3.22267 225.926 2.6382 224.268 1.77696 222.246C0.323746 218.84 -2.0512 216.029 -3.0038 212.369C-3.83054 209.198 -3.37984 205.863 -3.94316 202.667C-3.94676 202.643 -3.9882 202.647 -3.9846 202.671Z" fill="#E8C9D9"/>
<path d="M36.8396 243.004C34.3205 243.674 32.3954 247.351 30.9767 249.333C28.1049 253.344 24.4189 256.752 19.648 258.325C17.8009 258.935 15.8241 259.023 13.9693 259.569C11.9115 260.176 10.1518 261.282 8.21097 262.159C4.99488 263.616 1.27081 263.944 -1.68832 265.911C-1.94192 266.081 -1.7991 266.427 -1.50626 266.392C-0.349662 266.258 0.739504 265.599 1.8359 265.211C4.05217 264.425 6.34594 263.874 8.5462 263.043C10.5996 262.27 12.5017 261.166 14.6381 260.607C16.4149 260.144 18.3114 260.046 20.0533 259.388C23.5138 258.082 26.4073 255.77 28.8536 253.046C31.2854 250.334 33.294 244.235 36.8596 243.087C36.9126 243.07 36.8956 242.988 36.8396 243.004V243.004Z" fill="#E8C9D9"/>
<path d="M76.0109 203.902C72.3865 202.634 68.6264 205.83 65.8082 207.63C64.3116 208.584 62.772 209.485 61.3095 210.495C58.3961 212.507 55.2522 213.559 51.8981 214.628C46.9581 216.199 41.7698 215.588 36.6554 215.41C31.6567 215.235 27.9785 216.165 23.9266 218.988C23.813 219.069 23.9005 219.232 24.0296 219.179C26.631 218.147 28.7893 217.081 31.6203 216.643C34.2621 216.234 36.9431 216.515 39.6046 216.619C43.5878 216.773 47.6454 217.042 51.4993 215.912C55.6917 214.681 59.5039 212.878 62.9894 210.292C66.7427 207.51 71.1755 203.619 76.1394 203.94C76.2286 203.947 76.2516 203.807 76.1649 203.782C76.1261 203.775 76.0902 203.764 76.0544 203.756C75.9588 203.732 75.918 203.869 76.0109 203.902V203.902Z" fill="#E8C9D9"/>
<path d="M27.6052 144.827C30.6064 152.85 24.7412 161.867 27.5944 170.013C28.783 173.403 31.5134 176.964 33.405 180.012C35.1354 182.799 35.8232 184.881 36.3666 188.107C36.5574 189.25 36.6211 190.409 36.9149 191.517C37.027 191.935 37.646 191.782 37.5664 191.36C37.2503 189.638 37.3932 187.771 37.0606 185.991C36.6757 183.918 36.026 182.481 34.9226 180.615C32.862 177.13 29.8943 173.459 28.4667 169.678C25.4675 161.732 30.9581 152.689 27.6668 144.801C27.6511 144.769 27.5924 144.791 27.6052 144.827V144.827Z" fill="#E8C9D9"/>
<path d="M41.462 178.867C40.952 182.317 40.2285 185.547 39.1811 188.871C38.336 191.553 37.7502 194.832 36.365 197.288C33.7477 201.933 30.7 206.466 27.715 210.902C21.6054 219.988 14.7485 228.759 9.41021 238.391C4.05514 248.063 0.547249 258.456 -3.6984 268.558C-8.128 279.104 -10.943 290.882 -13.0764 302.075C-13.1209 302.296 -12.7915 302.409 -12.7324 302.179C-9.6317 290.209 -5.56857 278.278 -1.11461 266.759C3.00608 256.091 6.86071 245.127 13.0352 235.363C18.8939 226.102 25.4896 217.439 31.3494 208.223C34.0316 204.006 37.3493 199.582 38.6915 194.745C40.1553 189.462 41.6621 184.345 42.329 178.888C42.3971 178.328 41.5424 178.325 41.462 178.867V178.867Z" fill="#E8C9D9"/>
</g>
<defs>
<clipPath id="clip0">
<rect width="104" height="270" fill="white"/>
</clipPath>
</defs>
</svg>
