<svg width="499" height="1258" viewBox="0 0 499 1258" fill="none" xmlns="http://www.w3.org/2000/svg">
<path d="M87.4698 798.278C96.0214 775.444 105.205 751.23 103.87 725.487C102.165 692.536 83.8048 666.143 77.1993 634.451C63.8107 570.208 100.738 506.305 102.016 439.372C103.444 365.062 61.9142 304.538 42.531 235.386C27.2815 181 26.0385 119.076 39.072 63.5709C43.2696 45.6856 48.9518 28.0203 49.2928 9.20521C49.4064 2.91686 48.8595 -3.17153 47.7515 -9H0V1095C25.9533 993.467 51.5443 894.153 87.4698 798.278Z" fill="#A14574"/>
<path d="M17.9783 366.126C81.4212 412.201 111.239 489.969 143.378 561.351C175.512 632.733 219.628 707.586 293.874 732.989C336.462 747.564 385.059 744.044 424.098 766.419C437.969 774.363 452.388 785.044 458 800H-5V356C3.59579 358.026 11.3856 361.336 17.9783 366.126Z" fill="#C982A7"/>
<path d="M17.9602 1247.55C81.353 1200.03 160.443 1233.32 192.558 1159.68C224.666 1086.05 268.747 1008.84 342.934 982.634C491.839 930.025 468.85 840.659 457.635 800H-5V1258C3.58901 1255.91 11.3727 1252.5 17.9602 1247.55Z" fill="#C982A7"/>
<path d="M127.039 518.967L126.223 516.208C125.335 513.197 124.866 510.338 124.411 507.565C123.747 503.536 123.118 499.731 121.299 495.687C117.732 487.759 112.901 481.036 106.951 475.714C105.442 474.357 103.817 473.057 102.243 471.794C99.3406 469.454 96.3296 467.035 93.8095 464.147C81.0649 449.539 83.8883 427.509 88.4951 411.594C89.5421 407.962 90.7262 404.28 91.8743 400.713C96.214 387.217 100.705 373.26 98.9796 359.287L98.698 357.027L100.539 358.363C110.302 365.447 117.609 376.711 121.126 390.084C124.035 401.139 124.505 413.566 122.562 428.094L122.238 430.433C121.501 435.726 120.728 441.207 121.812 446.391C122.606 450.189 124.397 453.8 126.137 457.287C126.902 458.84 127.675 460.392 128.368 461.966C132.729 471.859 134.469 482.488 133.552 493.579C132.931 501.052 131.09 508.692 128.094 516.295L127.039 518.967ZM101.167 361.338C102.236 374.956 97.9325 388.344 93.7589 401.319C92.6181 404.872 91.4339 408.54 90.3941 412.143C85.9173 427.581 83.1445 448.918 95.297 462.854C97.7015 465.605 100.64 467.967 103.485 470.256C105.074 471.526 106.72 472.855 108.273 474.241C114.432 479.751 119.421 486.69 123.104 494.871C125.025 499.153 125.703 503.269 126.361 507.247C126.649 509.002 126.945 510.8 127.35 512.641C129.632 506.186 131.054 499.738 131.581 493.413C132.477 482.661 130.787 472.35 126.563 462.768C125.877 461.215 125.119 459.692 124.368 458.168C122.577 454.565 120.728 450.839 119.876 446.795C118.721 441.272 119.522 435.625 120.288 430.159L120.606 427.834C122.512 413.566 122.057 401.384 119.219 390.589C116.035 378.495 109.666 368.191 101.167 361.338Z" fill="#E8C9D9"/>
<path d="M84.5098 574.537L85.138 572.804C89.9398 559.41 114.895 547.46 128.628 546.759C131.618 546.6 134.564 546.976 137.409 547.33C142.319 547.936 146.962 548.521 151.576 546.543C155.208 544.997 158.623 541.994 161.916 539.091C164.703 536.643 167.584 534.108 170.667 532.347C184.517 524.469 200.727 520.83 216.317 522.108C223.379 522.693 231.712 522.606 233.387 516.786L236.001 507.709L235.322 517.133C233.806 538.145 218.7 557.186 198.576 563.439C193.341 565.064 187.853 565.858 182.546 566.631C177.491 567.36 172.263 568.118 167.339 569.591C164.169 570.537 160.999 571.808 157.93 573.05C151.655 575.57 145.164 578.184 138.246 578.198C131.885 578.213 125.993 576.01 120.303 573.88C114.938 571.887 109.4 569.815 103.63 569.707C99.4711 569.627 95.9402 570.884 92.2071 572.22C90.308 572.891 88.344 573.591 86.3005 574.097L84.5098 574.537ZM216.151 524.079C200.958 522.837 185.152 526.382 171.649 534.065C168.732 535.726 165.931 538.188 163.223 540.578C159.808 543.582 156.277 546.687 152.356 548.362C147.243 550.55 142.124 549.907 137.163 549.286C134.405 548.947 131.546 548.586 128.73 548.73C116.151 549.373 93.8606 559.677 87.7951 571.627C89.066 571.237 90.3152 570.79 91.5428 570.357C95.2759 569.021 99.1462 567.642 103.666 567.728C109.775 567.844 115.479 569.974 120.989 572.032C126.527 574.097 132.246 576.234 138.239 576.22C144.781 576.205 150.811 573.779 157.194 571.216C160.306 569.959 163.519 568.667 166.768 567.692C171.837 566.183 177.137 565.418 182.264 564.674C187.492 563.916 192.9 563.129 197.991 561.547C215.985 555.958 229.812 539.741 232.845 521.241C229.069 524.577 222.187 524.577 216.151 524.079Z" fill="#E8C9D9"/>
<path d="M56.7238 616.959L55.2579 615.046C51.6043 610.251 47.0624 608.865 42.2462 607.399C39.1629 606.453 35.9641 605.471 32.7509 603.579C31.6967 602.958 30.2236 601.94 29.5882 600.308C29.0539 598.893 29.2778 597.42 29.48 596.12C29.545 595.694 29.6099 595.268 29.6533 594.849C30.1009 589.946 26.765 585.939 23.2268 581.7C21.9632 580.177 20.649 578.61 19.537 577C15.3779 570.956 13.8687 563.598 13.1033 558.587C9.16802 532.946 15.7461 506.273 31.1624 485.397L32.8232 486.459C30.3609 490.957 30.527 496.943 33.343 504.756C33.7835 505.976 34.2528 507.19 34.7221 508.41C36.6429 513.392 38.6286 518.548 38.5492 524.014C38.5058 526.57 38.0077 529.083 37.5166 531.509C37.1051 533.596 36.6718 535.755 36.5562 537.87C36.0797 546.694 40.8454 554.767 45.4522 562.573C47.0841 565.345 48.781 568.219 50.2251 571.093C52.7885 576.191 53.4888 580.697 54.2326 585.47C54.4564 586.892 54.6875 588.358 54.9691 589.903L55.1352 590.791C56.5649 598.51 58.0523 606.496 57.027 614.569L56.7238 616.959ZM45.4955 606.345C49.0048 607.5 52.3264 608.951 55.2869 612.035C55.7634 605.023 54.4565 597.983 53.1928 591.152L53.0268 590.264C52.7379 588.704 52.5068 587.217 52.283 585.773C51.5321 580.957 50.8821 576.797 48.456 571.981C47.0407 569.165 45.3655 566.32 43.7481 563.576C38.9896 555.518 34.0723 547.185 34.585 537.762C34.7077 535.502 35.1482 533.278 35.5815 531.119C36.0725 528.671 36.5346 526.361 36.5707 523.978C36.6501 518.902 34.7294 513.927 32.8737 509.125C32.4043 507.89 31.9277 506.663 31.48 505.428C29.581 500.142 28.8228 495.6 29.2199 491.701C16.6631 511.291 11.5147 535.22 15.0529 558.291C16.2299 565.945 18.1723 571.534 21.1689 575.88C22.2304 577.411 23.5084 578.949 24.7504 580.437C28.3824 584.798 32.1444 589.311 31.6173 595.03C31.574 595.492 31.509 595.954 31.4368 596.423C31.2562 597.586 31.0829 598.676 31.4368 599.593C31.7473 600.402 32.4837 601.131 33.7546 601.875C36.7656 603.651 39.8489 604.59 42.8239 605.507C43.7265 605.781 44.6218 606.056 45.4955 606.345Z" fill="#E8C9D9"/>
<path d="M22.7858 693.665L20.9951 692.835C29.1257 675.368 41.9785 663.323 61.4456 654.919C64.8682 653.446 68.3991 652.023 71.8218 650.644C84.6458 645.481 97.9031 640.152 108.063 630.787C111.269 627.826 114.345 624.353 117.327 620.988C125.197 612.092 133.335 602.886 145.112 601.767L148.145 601.478L145.863 603.493C140.736 608.005 136.433 613.313 133.075 619.263C130.071 624.584 127.84 630.433 125.681 636.087C123.493 641.827 121.233 647.756 118.15 653.207C106.936 673.057 84.0971 685.888 61.3229 685.145C58.9761 685.072 56.3983 684.82 53.6761 684.56C41.733 683.397 28.1942 682.09 22.8003 693.651C22.7931 693.651 22.7931 693.658 22.7858 693.665ZM142.13 604.258C132.808 606.475 125.985 614.179 118.8 622.303C115.796 625.696 112.684 629.213 109.398 632.238C98.979 641.849 85.5484 647.25 72.5583 652.478C69.1501 653.85 65.6264 655.265 62.2255 656.731C46.441 663.547 35.1188 672.804 27.2049 685.491C34.4762 680.711 44.9823 681.729 53.871 682.588C56.5571 682.848 59.0989 683.094 61.3806 683.173C83.4472 683.888 105.571 671.461 116.431 652.24C119.435 646.911 121.674 641.055 123.833 635.387C126.021 629.66 128.281 623.739 131.357 618.295C134.281 613.111 137.899 608.403 142.13 604.258Z" fill="#E8C9D9"/>
<path d="M26.7792 525.956C27.0824 532.83 25.2412 539.813 26.411 546.694C27.819 555.048 31.6099 561.475 35.408 568.883C37.3431 572.66 37.928 576.971 39.7621 580.682C41.3651 583.931 43.6107 586.61 45.878 589.376C51.4452 596.185 53.236 604.287 54.9906 612.699C55.07 613.118 55.6838 613.06 55.7199 612.641C56.1387 607.204 54.4707 599.998 52.2179 595.109C50.882 592.199 48.1742 589.816 46.2463 587.369C42.802 583.014 41.4878 578.942 39.5238 573.967C36.2094 565.584 30.6134 558.587 28.5338 549.619C26.7286 541.849 28.0428 533.762 26.8803 525.949C26.873 525.891 26.7719 525.898 26.7792 525.956Z" fill="#E8C9D9"/>
<path d="M123.494 626.765C117.32 628.231 112.396 637.054 108.814 641.784C101.565 651.359 92.3729 659.41 80.6608 662.926C76.1262 664.291 71.31 664.378 66.7609 665.583C61.7136 666.927 57.3595 669.504 52.5794 671.512C44.6583 674.848 35.5745 675.404 28.2455 679.996C27.6173 680.393 27.9423 681.245 28.6571 681.18C31.4804 680.927 34.1738 679.397 36.8671 678.523C42.3115 676.754 47.9292 675.562 53.3375 673.685C58.3848 671.938 63.0855 669.374 68.3206 668.154C72.6747 667.143 77.2959 667.028 81.5778 665.54C90.0838 662.587 97.2757 657.15 103.406 650.68C109.5 644.239 114.786 629.53 123.537 626.967C123.667 626.931 123.631 626.729 123.494 626.765Z" fill="#E8C9D9"/>
<path d="M221.363 534.166C212.626 530.845 203.268 538.376 196.293 542.571C192.589 544.795 188.784 546.889 185.159 549.25C177.938 553.958 170.219 556.312 161.987 558.695C149.864 562.197 137.278 560.37 124.844 559.605C112.691 558.854 103.68 560.876 93.6359 567.483C93.3543 567.671 93.5565 568.075 93.8742 567.952C100.272 565.613 105.593 563.158 112.511 562.277C118.966 561.453 125.472 562.313 131.942 562.739C141.625 563.374 151.481 564.291 160.933 561.793C171.215 559.071 180.61 554.933 189.26 548.868C198.575 542.34 209.615 533.163 221.674 534.267C221.891 534.289 221.956 533.95 221.746 533.885C221.652 533.863 221.566 533.834 221.479 533.812C221.248 533.748 221.14 534.08 221.363 534.166Z" fill="#E8C9D9"/>
<path d="M107.421 387.253C114.201 406.973 99.3407 428.534 105.753 448.543C108.424 456.868 114.836 465.714 119.241 473.252C123.27 480.148 124.808 485.26 125.92 493.145C126.31 495.94 126.39 498.763 127.032 501.478C127.278 502.503 128.794 502.171 128.628 501.139C127.971 496.929 128.44 492.394 127.747 488.04C126.946 482.971 125.458 479.433 122.895 474.819C118.107 466.205 111.125 457.078 107.897 447.785C101.117 428.252 115.067 406.605 107.572 387.195C107.536 387.116 107.392 387.167 107.421 387.253Z" fill="#E8C9D9"/>
<path d="M13.2475 729.01L11.7456 721.818C9.91155 713.089 4.83534 704.922 -2.19043 699.42C-5.69249 696.683 -9.77218 694.466 -13.7291 692.329L-15 691.636V689.383C-14.2707 689.787 -13.5269 690.184 -12.7832 690.589C-8.76124 692.769 -4.60211 695.022 -0.970082 697.867C3.84614 701.644 7.79588 706.604 10.4892 712.15C10.843 710.532 10.9008 708.908 10.7564 707.327C10.287 704.965 9.67322 702.626 8.90783 700.351C8.07022 698.387 7.10272 696.676 6.27956 695.391C4.74154 692.964 2.93634 690.632 1.20336 688.372C-1.07839 685.412 -3.43234 682.357 -5.28806 679.014C-9.62772 671.208 -11.1441 662.074 -9.54831 653.287C-9.41834 652.572 -9.27395 651.857 -9.12231 651.135C-8.52299 648.261 -7.9525 645.546 -8.61681 642.939C-9.24501 640.491 -10.9131 638.405 -12.5738 636.469C-13.3681 635.545 -14.1768 634.628 -15 633.733V630.837C-13.6569 632.245 -12.35 633.697 -11.0791 635.177C-9.34613 637.199 -7.43268 639.589 -6.70339 642.448C-5.93077 645.503 -6.56614 648.571 -7.18712 651.539C-7.33154 652.24 -7.47601 652.94 -7.60598 653.64C-9.09345 661.858 -7.62035 670.753 -3.5623 678.054C-1.77878 681.267 0.53178 684.263 2.77021 687.166C4.53206 689.455 6.35894 691.831 7.9475 694.329C8.38797 695.015 8.79952 695.708 9.18222 696.402L9.49275 696.272C9.94043 697.355 10.352 698.452 10.7275 699.564C11.8034 702.099 12.4604 704.59 12.6987 706.973C13.6518 711.811 13.9984 716.764 13.6952 721.674L13.2475 729.01ZM11.2835 713.883C11.4351 714.237 11.5867 714.598 11.7312 714.959C11.7095 714.641 11.6879 714.323 11.6662 714.006L11.2835 713.883Z" fill="#E8C9D9"/>
<path d="M-15 673.498C-12.7544 675.765 -10.1043 677.693 -8.1619 680.206C-5.81516 683.245 -5.68522 686.632 -3.85837 689.867C-2.66695 691.983 -0.56571 694.113 1.11672 695.918C5.91129 701.045 8.93676 705.695 9.40611 713.089C9.46387 713.912 10.6697 714.027 10.7275 713.154C11.2257 706.034 8.35907 700.749 3.86777 695.672C-1.54778 689.549 -3.02801 681.78 -9.02844 676.169C-11.3246 674.017 -13.3176 672.017 -15 669.981V673.498Z" fill="#E8C9D9"/>
<path d="M138.924 470.992C137.459 479.354 135.487 487.166 132.722 495.189C130.491 501.658 128.852 509.601 125.321 515.486C118.649 526.62 110.937 537.452 103.384 548.052C87.9244 569.764 70.6668 590.661 57.0485 613.753C43.3869 636.939 34.1732 662.002 23.1833 686.307C11.7167 711.681 4.09887 740.159 -1.82213 767.259C-1.94488 767.793 -1.15058 768.089 -0.991726 767.533C7.33378 738.607 17.9988 709.839 29.5881 682.097C40.3108 656.406 50.4054 629.978 66.0672 606.619C80.9275 584.466 97.5424 563.814 112.403 541.77C119.205 531.682 127.566 521.133 131.148 509.45C135.054 496.691 139.054 484.336 141.033 471.1C141.235 469.743 139.155 469.678 138.924 470.992Z" fill="#E8C9D9"/>
</svg>
