<svg width="186" height="143" viewBox="0 0 186 143" fill="none" xmlns="http://www.w3.org/2000/svg">
<g clip-path="url(#clip0)">
<path d="M56.8926 46.6582C56.8926 41.7339 57.8303 37.0768 59.6958 32.687C61.5662 28.2923 64.1572 24.437 67.4638 21.1211C70.7753 17.8003 74.5951 15.2021 78.9184 13.3313C83.2416 11.4556 87.9152 10.5203 92.9343 10.5203C97.8448 10.5203 102.494 11.4556 106.871 13.3313C111.249 15.2021 115.093 17.8003 118.405 21.1211C121.711 24.437 124.302 28.2923 126.173 32.687C128.038 37.0768 128.976 41.7339 128.976 46.6582C128.976 51.6914 128.038 56.3781 126.173 60.7135C124.302 65.0488 121.711 68.8794 118.405 72.2002C115.093 75.521 111.249 78.1143 106.871 79.99C102.494 81.8657 97.8448 82.801 92.9343 82.801C87.9152 82.801 83.2416 81.8657 78.9184 79.99C74.5951 78.1143 70.7753 75.521 67.4638 72.2002C64.1572 68.8794 61.5662 65.0488 59.6958 60.7135C57.8303 56.3781 56.8926 51.6914 56.8926 46.6582ZM72.9122 46.6582C72.9122 50.8352 74.0621 54.5816 76.357 57.9024C78.6519 61.2232 81.5093 63.6334 84.9245 65.133C86.4199 65.7763 88.1028 67.0334 89.9732 68.9091C91.8387 70.7798 92.8258 73.482 92.9343 77.0206C93.0429 73.482 94.0003 70.7798 95.8165 68.9091C97.6326 67.0334 99.2909 65.7763 100.781 65.133C104.305 63.6334 107.217 61.2232 109.512 57.9024C111.811 54.5816 112.956 50.8352 112.956 46.6582C112.956 43.8768 112.448 41.2538 111.436 38.7892C110.42 36.3246 109.008 34.1816 107.192 32.3653C105.376 30.5441 103.239 29.1237 100.781 28.1092C98.3285 27.0897 95.7128 26.5799 92.9343 26.5799C90.1607 26.5799 87.5402 27.0897 85.0874 28.1092C82.6296 29.1237 80.4927 30.5441 78.6765 32.3653C76.8653 34.1816 75.4489 36.3246 74.4323 38.7892C73.4206 41.2538 72.9122 43.8768 72.9122 46.6582Z" fill="url(#paint0_linear)"/>
<path d="M18.0032 100.687C18.0032 101.751 17.87 102.657 17.5887 103.414C17.3123 104.171 16.9175 104.785 16.3993 105.265C15.8811 105.74 15.2494 106.091 14.5091 106.314C13.7688 106.537 12.8854 106.65 11.8638 106.65H9.10504C8.90764 106.65 8.74478 106.591 8.61152 106.477C8.47334 106.358 8.40918 106.17 8.40918 105.908V95.8071C8.40918 95.5448 8.47334 95.3567 8.61152 95.238C8.74478 95.1241 8.90764 95.0648 9.10504 95.0648H12.0662C13.0976 95.0648 13.9712 95.1885 14.6868 95.426C15.4073 95.6685 16.0094 96.0249 16.498 96.5C16.9915 96.9751 17.3666 97.564 17.6232 98.2618C17.8749 98.9597 18.0032 99.7663 18.0032 100.687ZM15.5751 100.771C15.5751 100.217 15.5109 99.7119 15.3826 99.2368C15.2543 98.7666 15.052 98.3608 14.7657 98.0144C14.4844 97.6729 14.1192 97.4007 13.68 97.2077C13.2358 97.0147 12.6535 96.9157 11.9329 96.9157H10.7485V104.78H11.9675C12.614 104.78 13.1568 104.701 13.5911 104.532C14.0304 104.364 14.4005 104.112 14.6966 103.775C14.9878 103.439 15.2099 103.023 15.353 102.518C15.5011 102.018 15.5751 101.434 15.5751 100.771ZM25.4603 99.1032C25.4603 99.316 25.4504 99.4941 25.4406 99.6278C25.4307 99.7663 25.4109 99.8752 25.3912 99.9495C25.3665 100.029 25.332 100.083 25.2925 100.113C25.253 100.142 25.2037 100.152 25.1444 100.152C25.1 100.152 25.0457 100.147 24.9816 100.123C24.9273 100.103 24.8582 100.083 24.7842 100.058C24.7101 100.034 24.6262 100.014 24.5374 99.989C24.4486 99.9692 24.3499 99.9594 24.2413 99.9594C24.1179 99.9594 23.9945 99.9841 23.8662 100.034C23.7429 100.088 23.6145 100.162 23.4763 100.276C23.3431 100.38 23.2049 100.524 23.0569 100.702C22.9137 100.88 22.7558 101.103 22.588 101.365V106.349C22.588 106.408 22.5683 106.457 22.5337 106.502C22.4992 106.551 22.44 106.586 22.3511 106.616C22.2672 106.646 22.1488 106.67 22.0106 106.685C21.8675 106.7 21.6849 106.705 21.4628 106.705C21.2456 106.705 21.063 106.7 20.9199 106.685C20.7768 106.67 20.6633 106.646 20.5794 106.616C20.4906 106.586 20.4264 106.551 20.3968 106.502C20.3573 106.457 20.3376 106.408 20.3376 106.349V98.3559C20.3376 98.2965 20.3573 98.247 20.3869 98.1975C20.4116 98.153 20.4659 98.1183 20.5448 98.0886C20.6238 98.0589 20.7225 98.0342 20.841 98.0193C20.9643 98.0045 21.1223 97.9995 21.3049 97.9995C21.4924 97.9995 21.6503 98.0045 21.7737 98.0193C21.902 98.0342 21.9958 98.0589 22.0698 98.0886C22.134 98.1183 22.1833 98.153 22.2129 98.1975C22.2425 98.247 22.2574 98.2965 22.2574 98.3559V99.3506C22.4646 99.0537 22.667 98.8062 22.8496 98.6132C23.0322 98.4202 23.2098 98.2668 23.3727 98.153C23.5405 98.0391 23.7083 97.9599 23.8761 97.9204C24.0439 97.8709 24.2117 97.8511 24.3795 97.8511C24.4535 97.8511 24.5374 97.856 24.6262 97.861C24.7151 97.8709 24.8089 97.8857 24.9026 97.9105C25.0013 97.9303 25.0852 97.955 25.1543 97.9797C25.2283 98.0094 25.2777 98.0342 25.3122 98.0639C25.3419 98.0936 25.3665 98.1282 25.3813 98.1628C25.3961 98.1975 25.4109 98.247 25.4208 98.3113C25.4356 98.3757 25.4455 98.4697 25.4504 98.5934C25.4554 98.7171 25.4603 98.8854 25.4603 99.1032ZM33.7564 106.378C33.7564 106.457 33.7268 106.522 33.6675 106.571C33.6083 106.621 33.5145 106.655 33.3862 106.675C33.2579 106.695 33.0654 106.705 32.8137 106.705C32.5472 106.705 32.3498 106.695 32.2314 106.675C32.108 106.655 32.0192 106.621 31.9698 106.571C31.9205 106.522 31.8958 106.457 31.8958 106.378V105.74C31.5651 106.091 31.195 106.363 30.7755 106.556C30.356 106.754 29.8872 106.853 29.3788 106.853C28.9594 106.853 28.5695 106.799 28.2141 106.685C27.8588 106.576 27.5578 106.413 27.2962 106.195C27.0396 105.977 26.8372 105.705 26.6941 105.383C26.551 105.062 26.4819 104.686 26.4819 104.26C26.4819 103.79 26.5707 103.389 26.7533 103.048C26.9359 102.701 27.2074 102.419 27.5627 102.191C27.923 101.969 28.3671 101.805 28.9051 101.696C29.4381 101.593 30.0599 101.538 30.7656 101.538H31.5454V101.053C31.5454 100.801 31.5207 100.583 31.4664 100.395C31.4171 100.207 31.3332 100.048 31.2197 99.9247C31.1012 99.796 30.9482 99.707 30.7558 99.6426C30.5633 99.5882 30.3215 99.5585 30.0402 99.5585C29.6651 99.5585 29.3295 99.5981 29.0383 99.6822C28.7422 99.7614 28.4806 99.8604 28.2586 99.9594C28.0315 100.058 27.844 100.152 27.691 100.236C27.538 100.321 27.4146 100.365 27.3209 100.365C27.2518 100.365 27.1975 100.34 27.1481 100.301C27.0938 100.256 27.0544 100.197 27.0248 100.123C26.9902 100.043 26.9655 99.9495 26.9458 99.8356C26.9261 99.7218 26.9162 99.5981 26.9162 99.4595C26.9162 99.2764 26.9359 99.1279 26.9655 99.019C26.9902 98.9151 27.0494 98.8211 27.1333 98.732C27.2172 98.6429 27.3603 98.5489 27.5726 98.4449C27.7798 98.341 28.0217 98.247 28.303 98.1579C28.5843 98.0639 28.8853 97.9896 29.216 97.9352C29.5466 97.8808 29.8872 97.8511 30.2376 97.8511C30.8643 97.8511 31.3973 97.9105 31.8415 98.0342C32.2857 98.1579 32.6509 98.346 32.9322 98.5984C33.2184 98.8557 33.4306 99.1824 33.559 99.5783C33.6922 99.9792 33.7564 100.454 33.7564 100.999V106.378ZM31.5454 102.949H30.6867C30.3264 102.949 30.0155 102.973 29.7638 103.028C29.5072 103.082 29.2999 103.161 29.137 103.27C28.9742 103.379 28.8607 103.508 28.7866 103.661C28.7126 103.81 28.6731 103.988 28.6731 104.181C28.6731 104.517 28.7817 104.78 28.989 104.968C29.2012 105.161 29.4924 105.255 29.8674 105.255C30.1833 105.255 30.4695 105.181 30.736 105.017C31.0025 104.854 31.269 104.616 31.5454 104.31V102.949ZM39.1654 105.354C39.1654 105.908 39.0716 106.284 38.8791 106.472C38.6866 106.665 38.3412 106.759 37.8378 106.759C37.3393 106.759 36.9939 106.665 36.8014 106.477C36.6089 106.289 36.5151 105.933 36.5151 105.408C36.5151 104.849 36.6139 104.468 36.8063 104.28C36.9988 104.087 37.3492 103.993 37.8575 103.993C38.351 103.993 38.6916 104.087 38.884 104.275C39.0716 104.463 39.1654 104.824 39.1654 105.354ZM55.6736 105.774C55.7476 105.987 55.792 106.161 55.8118 106.284C55.8266 106.408 55.8019 106.502 55.7378 106.566C55.6736 106.631 55.5552 106.67 55.3874 106.685C55.2245 106.7 54.9925 106.705 54.7014 106.705C54.4003 106.705 54.1634 106.705 53.9956 106.695C53.8229 106.685 53.6946 106.665 53.6057 106.641C53.5169 106.611 53.4528 106.576 53.4182 106.527C53.3837 106.477 53.3491 106.418 53.3294 106.339L52.5694 104.013H48.2165L47.4861 106.274C47.4614 106.358 47.4318 106.433 47.3923 106.487C47.3528 106.542 47.2887 106.586 47.2048 106.621C47.1209 106.655 46.9975 106.675 46.8396 106.685C46.6817 106.7 46.4744 106.705 46.2178 106.705C45.9463 106.705 45.7292 106.695 45.5762 106.68C45.4182 106.66 45.3146 106.616 45.2554 106.551C45.1962 106.477 45.1715 106.383 45.1912 106.255C45.211 106.131 45.2554 105.967 45.3245 105.755L48.8828 95.4755C48.9173 95.3716 48.9617 95.2924 49.0111 95.2281C49.0555 95.1637 49.1295 95.1192 49.2332 95.0845C49.3417 95.0499 49.4849 95.0301 49.6724 95.0202C49.855 95.0103 50.0968 95.0103 50.4028 95.0103C50.7532 95.0103 51.0345 95.0103 51.2418 95.0202C51.4491 95.0301 51.6119 95.0499 51.7254 95.0845C51.8439 95.1192 51.9228 95.1687 51.9771 95.233C52.0265 95.3023 52.0709 95.3864 52.1054 95.5003L55.6736 105.774ZM50.3732 97.2671H50.3633L48.7544 102.196H51.9969L50.3732 97.2671ZM65.3071 106.349C65.3071 106.408 65.2874 106.457 65.2528 106.502C65.2183 106.551 65.1591 106.586 65.0752 106.616C64.9913 106.646 64.8728 106.67 64.7297 106.685C64.5816 106.7 64.404 106.705 64.1868 106.705C63.9647 106.705 63.7821 106.7 63.639 106.685C63.491 106.67 63.3774 106.646 63.2886 106.616C63.2096 106.586 63.1455 106.551 63.1159 106.502C63.0764 106.457 63.0567 106.408 63.0567 106.349V101.791C63.0567 101.404 63.032 101.098 62.9728 100.88C62.9185 100.657 62.8346 100.469 62.7309 100.311C62.6224 100.152 62.4842 100.029 62.3164 99.9396C62.1437 99.8554 61.9512 99.8109 61.7242 99.8109C61.4379 99.8109 61.1517 99.9148 60.8605 100.128C60.5693 100.335 60.2633 100.642 59.9524 101.038V106.349C59.9524 106.408 59.9327 106.457 59.8981 106.502C59.8636 106.551 59.7994 106.586 59.7155 106.616C59.6267 106.646 59.5132 106.67 59.3701 106.685C59.2269 106.7 59.0443 106.705 58.8272 106.705C58.6051 106.705 58.4225 106.7 58.2794 106.685C58.1412 106.67 58.0277 106.646 57.9389 106.616C57.85 106.586 57.7908 106.551 57.7563 106.502C57.7217 106.457 57.702 106.408 57.702 106.349V98.3559C57.702 98.2965 57.7168 98.247 57.7464 98.1975C57.776 98.153 57.8303 98.1183 57.9043 98.0886C57.9882 98.0589 58.082 98.0342 58.2054 98.0193C58.3287 98.0045 58.4817 97.9995 58.6643 97.9995C58.8568 97.9995 59.0147 98.0045 59.1381 98.0193C59.2615 98.0342 59.3602 98.0589 59.4293 98.0886C59.4984 98.1183 59.5477 98.153 59.5773 98.1975C59.607 98.247 59.6218 98.2965 59.6218 98.3559V99.2764C60.061 98.8013 60.5101 98.4449 60.9641 98.2074C61.4182 97.9698 61.8969 97.8511 62.3904 97.8511C62.9283 97.8511 63.3873 97.9401 63.7575 98.1183C64.1325 98.2965 64.4286 98.5439 64.6606 98.8508C64.8876 99.1576 65.0554 99.5139 65.1541 99.9297C65.2578 100.34 65.3071 100.835 65.3071 101.414V106.349ZM74.832 106.378C74.832 106.457 74.8024 106.522 74.7432 106.571C74.684 106.621 74.5902 106.655 74.4619 106.675C74.3336 106.695 74.1411 106.705 73.8894 106.705C73.6229 106.705 73.4255 106.695 73.3071 106.675C73.1837 106.655 73.0949 106.621 73.0455 106.571C72.9961 106.522 72.9715 106.457 72.9715 106.378V105.74C72.6408 106.091 72.2707 106.363 71.8512 106.556C71.4317 106.754 70.9678 106.853 70.4545 106.853C70.035 106.853 69.6451 106.799 69.2898 106.685C68.9345 106.576 68.6334 106.413 68.3719 106.195C68.1152 105.977 67.9129 105.705 67.7698 105.383C67.6267 105.062 67.5576 104.686 67.5576 104.26C67.5576 103.79 67.6464 103.389 67.829 103.048C68.0116 102.701 68.283 102.419 68.6384 102.191C68.9986 101.969 69.4428 101.805 69.9807 101.696C70.5137 101.593 71.1356 101.538 71.8413 101.538H72.6211V101.053C72.6211 100.801 72.5964 100.583 72.5421 100.395C72.4977 100.207 72.4089 100.048 72.2953 99.9247C72.1769 99.796 72.0239 99.707 71.8314 99.6426C71.639 99.5882 71.3971 99.5585 71.1158 99.5585C70.7408 99.5585 70.4052 99.5981 70.114 99.6822C69.8179 99.7614 69.5563 99.8604 69.3342 99.9594C69.1072 100.058 68.9197 100.152 68.7667 100.236C68.6137 100.321 68.4903 100.365 68.3965 100.365C68.3324 100.365 68.2732 100.34 68.2238 100.301C68.1745 100.256 68.13 100.197 68.1004 100.123C68.0659 100.043 68.0412 99.9495 68.0215 99.8356C68.0067 99.7218 67.9968 99.5981 67.9968 99.4595C67.9968 99.2764 68.0116 99.1279 68.0412 99.019C68.0708 98.9151 68.1251 98.8211 68.209 98.732C68.2929 98.6429 68.436 98.5489 68.6482 98.4449C68.8555 98.341 69.0973 98.247 69.3787 98.1579C69.66 98.0639 69.961 97.9896 70.2917 97.9352C70.6223 97.8808 70.9678 97.8511 71.3182 97.8511C71.94 97.8511 72.473 97.9105 72.9172 98.0342C73.3614 98.1579 73.7266 98.346 74.0079 98.5984C74.2941 98.8557 74.5063 99.1824 74.6346 99.5783C74.7679 99.9792 74.832 100.454 74.832 100.999V106.378ZM72.6211 102.949H71.7624C71.4021 102.949 71.0912 102.973 70.8395 103.028C70.5828 103.082 70.3756 103.161 70.2127 103.27C70.0498 103.379 69.9363 103.508 69.8623 103.661C69.7883 103.81 69.7488 103.988 69.7488 104.181C69.7488 104.517 69.8574 104.78 70.0696 104.968C70.2769 105.161 70.568 105.255 70.9431 105.255C71.259 105.255 71.5501 105.181 71.8117 105.017C72.0782 104.854 72.3447 104.616 72.6211 104.31V102.949ZM88.7098 105.725C88.7098 105.898 88.7 106.042 88.6852 106.161C88.6703 106.279 88.6506 106.373 88.621 106.443C88.5914 106.517 88.5519 106.566 88.5075 106.601C88.4631 106.636 88.4137 106.65 88.3594 106.65H82.5655C82.3681 106.65 82.2052 106.591 82.072 106.477C81.9387 106.358 81.8696 106.17 81.8696 105.908V95.8071C81.8696 95.5448 81.9387 95.3567 82.072 95.238C82.2052 95.1241 82.3681 95.0648 82.5655 95.0648H88.3347C88.3841 95.0648 88.4335 95.0796 88.4779 95.1093C88.5174 95.139 88.5519 95.1934 88.5815 95.2677C88.6111 95.3419 88.6358 95.4359 88.6506 95.5547C88.6654 95.6735 88.6703 95.817 88.6703 96.0001C88.6703 96.1684 88.6654 96.307 88.6506 96.4257C88.6358 96.5445 88.6111 96.6385 88.5815 96.7078C88.5519 96.7821 88.5174 96.8316 88.4779 96.8662C88.4335 96.9008 88.3841 96.9157 88.3347 96.9157H84.2089V99.7416H87.6833C87.7376 99.7416 87.7869 99.7564 87.8314 99.7861C87.8758 99.8208 87.9103 99.8703 87.9449 99.9396C87.9745 100.009 87.9942 100.098 88.009 100.217C88.0238 100.335 88.0337 100.474 88.0337 100.642C88.0337 100.816 88.0238 100.959 88.009 101.073C87.9942 101.187 87.9745 101.276 87.9449 101.345C87.9103 101.414 87.8758 101.464 87.8314 101.489C87.7869 101.518 87.7376 101.538 87.6833 101.538H84.2089V104.8H88.3594C88.4137 104.8 88.4631 104.814 88.5075 104.849C88.5519 104.884 88.5914 104.933 88.621 105.007C88.6506 105.077 88.6703 105.171 88.6852 105.289C88.7 105.408 88.7098 105.552 88.7098 105.725ZM103.866 106.349C103.866 106.408 103.846 106.457 103.812 106.502C103.777 106.551 103.718 106.586 103.634 106.616C103.55 106.646 103.436 106.67 103.293 106.685C103.15 106.7 102.968 106.705 102.746 106.705C102.519 106.705 102.336 106.7 102.188 106.685C102.05 106.67 101.931 106.646 101.847 106.616C101.759 106.586 101.699 106.551 101.665 106.502C101.635 106.457 101.615 106.408 101.615 106.349V101.612C101.615 101.345 101.596 101.098 101.541 100.88C101.492 100.657 101.413 100.469 101.309 100.311C101.206 100.152 101.077 100.029 100.92 99.9396C100.762 99.8554 100.574 99.8109 100.357 99.8109C100.09 99.8109 99.819 99.9148 99.5475 100.128C99.2712 100.335 98.9751 100.642 98.6543 101.038V106.349C98.6543 106.408 98.6395 106.457 98.6 106.502C98.5704 106.551 98.5062 106.586 98.4174 106.616C98.3335 106.646 98.215 106.67 98.0719 106.685C97.9288 106.7 97.7511 106.705 97.5389 106.705C97.3168 106.705 97.1342 106.7 96.9911 106.685C96.848 106.67 96.7295 106.646 96.6456 106.616C96.5568 106.586 96.4976 106.551 96.463 106.502C96.4235 106.457 96.4087 106.408 96.4087 106.349V101.612C96.4087 101.345 96.3841 101.098 96.3298 100.88C96.2804 100.657 96.2064 100.469 96.1028 100.311C96.0041 100.152 95.8708 100.029 95.7129 99.9396C95.55 99.8554 95.3625 99.8109 95.1503 99.8109C94.8739 99.8109 94.6025 99.9148 94.331 100.128C94.0546 100.335 93.7585 100.642 93.4476 101.038V106.349C93.4476 106.408 93.4279 106.457 93.3933 106.502C93.3588 106.551 93.2946 106.586 93.2058 106.616C93.1219 106.646 93.0084 106.67 92.8653 106.685C92.7221 106.7 92.5395 106.705 92.3224 106.705C92.1003 106.705 91.9177 106.7 91.7746 106.685C91.6364 106.67 91.5229 106.646 91.4341 106.616C91.3452 106.586 91.286 106.551 91.2515 106.502C91.2169 106.457 91.1972 106.408 91.1972 106.349V98.3559C91.1972 98.2965 91.212 98.247 91.2416 98.1975C91.2712 98.153 91.3255 98.1183 91.3995 98.0886C91.4834 98.0589 91.5772 98.0342 91.7006 98.0193C91.8239 98.0045 91.9769 97.9995 92.1595 97.9995C92.352 97.9995 92.5099 98.0045 92.6333 98.0193C92.7567 98.0342 92.8554 98.0589 92.9245 98.0886C92.9936 98.1183 93.0429 98.153 93.0725 98.1975C93.1022 98.247 93.117 98.2965 93.117 98.3559V99.2764C93.5562 98.8013 93.9954 98.4449 94.4347 98.2074C94.8739 97.9698 95.3279 97.8511 95.8066 97.8511C96.1324 97.8511 96.4285 97.8857 96.69 97.955C96.9516 98.0243 97.1836 98.1183 97.3909 98.247C97.5981 98.3757 97.7709 98.5291 97.9239 98.7072C98.0719 98.8854 98.1953 99.0834 98.294 99.3061C98.5358 99.0487 98.7678 98.831 98.9997 98.6429C99.2267 98.4647 99.4538 98.3113 99.6758 98.1925C99.8979 98.0787 100.12 97.9896 100.347 97.9352C100.569 97.8808 100.796 97.8511 101.028 97.8511C101.556 97.8511 102.005 97.9401 102.366 98.1183C102.731 98.2965 103.022 98.5439 103.244 98.8508C103.471 99.1576 103.629 99.5139 103.723 99.9297C103.816 100.34 103.866 100.776 103.866 101.236V106.349ZM108.855 106.349C108.855 106.408 108.836 106.457 108.801 106.502C108.766 106.551 108.707 106.586 108.618 106.616C108.53 106.646 108.416 106.67 108.278 106.685C108.13 106.7 107.952 106.705 107.73 106.705C107.513 106.705 107.325 106.7 107.187 106.685C107.044 106.67 106.931 106.646 106.842 106.616C106.758 106.586 106.694 106.551 106.659 106.502C106.625 106.457 106.605 106.408 106.605 106.349V98.3559C106.605 98.2965 106.625 98.247 106.659 98.1975C106.694 98.153 106.758 98.1183 106.842 98.0886C106.931 98.0589 107.044 98.0342 107.187 98.0193C107.325 98.0045 107.513 97.9995 107.73 97.9995C107.952 97.9995 108.13 98.0045 108.278 98.0193C108.416 98.0342 108.53 98.0589 108.618 98.0886C108.707 98.1183 108.766 98.153 108.801 98.1975C108.836 98.247 108.855 98.2965 108.855 98.3559V106.349ZM107.992 94.4313C108.031 94.3669 108.08 94.3075 108.14 94.263C108.199 94.2135 108.278 94.1789 108.362 94.1492C108.451 94.1244 108.564 94.1046 108.702 94.0947C108.841 94.0799 109.003 94.075 109.201 94.075C109.472 94.075 109.689 94.0848 109.842 94.1096C110.005 94.1343 110.114 94.169 110.188 94.2135C110.252 94.2581 110.282 94.3075 110.277 94.3719C110.272 94.4313 110.242 94.4956 110.188 94.5599L108.461 96.6386C108.411 96.6979 108.367 96.7474 108.317 96.787C108.273 96.8266 108.214 96.8563 108.135 96.881C108.061 96.9058 107.967 96.9206 107.853 96.9355C107.74 96.9454 107.597 96.9553 107.429 96.9553C107.222 96.9553 107.059 96.9454 106.936 96.9256C106.812 96.9058 106.728 96.8811 106.679 96.8415C106.634 96.8019 106.61 96.7524 106.62 96.693C106.63 96.6336 106.659 96.5643 106.713 96.4851L107.992 94.4313ZM113.884 106.349C113.884 106.408 113.865 106.457 113.83 106.502C113.795 106.551 113.731 106.586 113.642 106.616C113.559 106.646 113.445 106.67 113.302 106.685C113.159 106.7 112.976 106.705 112.759 106.705C112.537 106.705 112.354 106.7 112.211 106.685C112.073 106.67 111.96 106.646 111.871 106.616C111.782 106.586 111.723 106.551 111.688 106.502C111.654 106.457 111.634 106.408 111.634 106.349V94.5699C111.634 94.5105 111.654 94.456 111.688 94.4065C111.723 94.362 111.782 94.3175 111.871 94.2878C111.96 94.2531 112.073 94.2284 112.211 94.2135C112.354 94.1937 112.537 94.1838 112.759 94.1838C112.976 94.1838 113.159 94.1937 113.302 94.2135C113.445 94.2284 113.559 94.2531 113.642 94.2878C113.731 94.3175 113.795 94.362 113.83 94.4065C113.865 94.456 113.884 94.5105 113.884 94.5699V106.349ZM118.908 106.349C118.908 106.408 118.894 106.457 118.854 106.502C118.824 106.551 118.76 106.586 118.671 106.616C118.588 106.646 118.474 106.67 118.331 106.685C118.188 106.7 118.005 106.705 117.788 106.705C117.566 106.705 117.383 106.7 117.24 106.685C117.102 106.67 116.984 106.646 116.9 106.616C116.811 106.586 116.752 106.551 116.717 106.502C116.683 106.457 116.663 106.408 116.663 106.349V98.3757C116.663 98.3163 116.683 98.2618 116.717 98.2173C116.752 98.1728 116.811 98.1332 116.9 98.1035C116.984 98.0688 117.102 98.0441 117.24 98.0243C117.383 98.0094 117.566 97.9995 117.788 97.9995C118.005 97.9995 118.188 98.0094 118.331 98.0243C118.474 98.0441 118.588 98.0688 118.671 98.1035C118.76 98.1332 118.824 98.1728 118.854 98.2173C118.894 98.2618 118.908 98.3163 118.908 98.3757V106.349ZM119.096 95.6438C119.096 96.0991 119.002 96.4109 118.815 96.5841C118.632 96.7573 118.291 96.8415 117.788 96.8415C117.28 96.8415 116.934 96.7623 116.762 96.594C116.584 96.4257 116.495 96.1238 116.495 95.6883C116.495 95.233 116.589 94.9163 116.771 94.7431C116.949 94.5649 117.295 94.4758 117.803 94.4758C118.306 94.4758 118.647 94.5649 118.824 94.7332C119.007 94.9014 119.096 95.2033 119.096 95.6438ZM128.473 106.378C128.473 106.457 128.443 106.522 128.384 106.571C128.325 106.621 128.231 106.655 128.103 106.675C127.974 106.695 127.782 106.705 127.53 106.705C127.264 106.705 127.066 106.695 126.948 106.675C126.824 106.655 126.736 106.621 126.686 106.571C126.637 106.522 126.612 106.457 126.612 106.378V105.74C126.282 106.091 125.911 106.363 125.492 106.556C125.072 106.754 124.608 106.853 124.095 106.853C123.676 106.853 123.286 106.799 122.931 106.685C122.575 106.576 122.274 106.413 122.013 106.195C121.756 105.977 121.554 105.705 121.41 105.383C121.267 105.062 121.198 104.686 121.198 104.26C121.198 103.79 121.287 103.389 121.47 103.048C121.652 102.701 121.924 102.419 122.279 102.191C122.639 101.969 123.084 101.805 123.621 101.696C124.154 101.593 124.776 101.538 125.482 101.538H126.262V101.053C126.262 100.801 126.237 100.583 126.183 100.395C126.133 100.207 126.05 100.048 125.936 99.9247C125.818 99.796 125.665 99.707 125.472 99.6426C125.28 99.5882 125.038 99.5585 124.757 99.5585C124.381 99.5585 124.046 99.5981 123.755 99.6822C123.459 99.7614 123.197 99.8604 122.975 99.9594C122.748 100.058 122.56 100.152 122.407 100.236C122.254 100.321 122.131 100.365 122.037 100.365C121.968 100.365 121.914 100.34 121.865 100.301C121.81 100.256 121.771 100.197 121.741 100.123C121.707 100.043 121.682 99.9495 121.662 99.8356C121.642 99.7218 121.637 99.5981 121.637 99.4595C121.637 99.2764 121.652 99.1279 121.682 99.019C121.707 98.9151 121.766 98.8211 121.85 98.732C121.934 98.6429 122.077 98.5489 122.289 98.4449C122.496 98.341 122.738 98.247 123.019 98.1579C123.301 98.0639 123.602 97.9896 123.932 97.9352C124.263 97.8808 124.608 97.8511 124.959 97.8511C125.581 97.8511 126.114 97.9105 126.558 98.0342C127.002 98.1579 127.367 98.346 127.649 98.5984C127.935 98.8557 128.147 99.1824 128.275 99.5783C128.409 99.9792 128.473 100.454 128.473 100.999V106.378ZM126.262 102.949H125.403C125.043 102.949 124.732 102.973 124.48 103.028C124.224 103.082 124.016 103.161 123.853 103.27C123.691 103.379 123.577 103.508 123.503 103.661C123.429 103.81 123.389 103.988 123.389 104.181C123.389 104.517 123.498 104.78 123.705 104.968C123.918 105.161 124.209 105.255 124.584 105.255C124.9 105.255 125.186 105.181 125.452 105.017C125.719 104.854 125.985 104.616 126.262 104.31V102.949ZM145.894 100.722C145.894 101.682 145.776 102.543 145.539 103.3C145.302 104.057 144.946 104.701 144.473 105.225C144.004 105.755 143.421 106.16 142.731 106.438C142.04 106.715 141.235 106.853 140.327 106.853C139.424 106.853 138.644 106.735 137.978 106.497C137.307 106.264 136.749 105.903 136.3 105.418C135.856 104.938 135.52 104.324 135.298 103.577C135.076 102.83 134.963 101.949 134.963 100.929C134.963 99.994 135.081 99.1477 135.318 98.4004C135.555 97.6531 135.91 97.0147 136.384 96.4901C136.853 95.9655 137.435 95.5646 138.126 95.2825C138.822 95.0054 139.626 94.8618 140.539 94.8618C141.418 94.8618 142.188 94.9806 142.859 95.2132C143.525 95.4409 144.083 95.8022 144.532 96.2872C144.986 96.7672 145.322 97.3759 145.549 98.1134C145.78 98.8557 145.894 99.7218 145.894 100.722ZM143.426 100.84C143.426 100.236 143.377 99.6822 143.283 99.1823C143.19 98.6874 143.027 98.2569 142.8 97.9005C142.573 97.5492 142.267 97.272 141.887 97.079C141.502 96.886 141.028 96.787 140.46 96.787C139.883 96.787 139.404 96.8959 139.019 97.1137C138.629 97.3314 138.318 97.6234 138.082 97.9896C137.84 98.3509 137.672 98.7765 137.578 99.2615C137.479 99.7515 137.43 100.266 137.43 100.811C137.43 101.439 137.479 102.008 137.573 102.513C137.667 103.018 137.83 103.448 138.057 103.81C138.279 104.166 138.58 104.438 138.965 104.626C139.345 104.814 139.824 104.908 140.396 104.908C140.974 104.908 141.457 104.804 141.837 104.587C142.227 104.374 142.538 104.077 142.78 103.706C143.017 103.34 143.185 102.909 143.278 102.414C143.377 101.924 143.426 101.4 143.426 100.84ZM155.888 106.349C155.888 106.408 155.873 106.457 155.833 106.502C155.799 106.551 155.74 106.586 155.656 106.616C155.572 106.646 155.458 106.67 155.31 106.685C155.162 106.7 154.985 106.705 154.772 106.705C154.55 106.705 154.368 106.7 154.22 106.685C154.072 106.67 153.958 106.646 153.874 106.616C153.79 106.586 153.726 106.551 153.697 106.502C153.657 106.457 153.642 106.408 153.642 106.349V101.791C153.642 101.404 153.613 101.098 153.553 100.88C153.499 100.657 153.415 100.469 153.312 100.311C153.203 100.152 153.065 100.029 152.897 99.9396C152.724 99.8554 152.532 99.8109 152.305 99.8109C152.019 99.8109 151.732 99.9148 151.441 100.128C151.15 100.335 150.844 100.642 150.533 101.038V106.349C150.533 106.408 150.513 106.457 150.479 106.502C150.444 106.551 150.385 106.586 150.296 106.616C150.207 106.646 150.094 106.67 149.956 106.685C149.813 106.7 149.63 106.705 149.408 106.705C149.191 106.705 149.008 106.7 148.865 106.685C148.722 106.67 148.608 106.646 148.52 106.616C148.436 106.586 148.371 106.551 148.337 106.502C148.302 106.457 148.283 106.408 148.283 106.349V98.3559C148.283 98.2965 148.297 98.247 148.332 98.1975C148.357 98.153 148.411 98.1183 148.49 98.0886C148.569 98.0589 148.663 98.0342 148.786 98.0193C148.909 98.0045 149.062 97.9995 149.245 97.9995C149.437 97.9995 149.595 98.0045 149.719 98.0193C149.842 98.0342 149.941 98.0589 150.01 98.0886C150.079 98.1183 150.128 98.153 150.158 98.1975C150.188 98.247 150.202 98.2965 150.202 98.3559V99.2764C150.642 98.8013 151.091 98.4449 151.545 98.2074C151.999 97.9698 152.478 97.8511 152.971 97.8511C153.514 97.8511 153.968 97.9401 154.343 98.1183C154.713 98.2965 155.009 98.5439 155.241 98.8508C155.473 99.1576 155.636 99.5139 155.735 99.9297C155.838 100.34 155.888 100.835 155.888 101.414V106.349Z" fill="#96989A"/>
<path d="M160.882 106.349C160.882 106.408 160.862 106.457 160.823 106.502C160.793 106.551 160.729 106.586 160.64 106.616C160.556 106.646 160.443 106.67 160.3 106.685C160.157 106.7 159.974 106.705 159.757 106.705C159.535 106.705 159.352 106.7 159.209 106.685C159.071 106.67 158.952 106.646 158.869 106.616C158.78 106.586 158.72 106.551 158.686 106.502C158.651 106.457 158.632 106.408 158.632 106.349V98.3757C158.632 98.3163 158.651 98.2618 158.686 98.2173C158.72 98.1728 158.78 98.1332 158.869 98.1035C158.952 98.0688 159.071 98.0441 159.209 98.0243C159.352 98.0094 159.535 97.9995 159.757 97.9995C159.974 97.9995 160.157 98.0094 160.3 98.0243C160.443 98.0441 160.556 98.0688 160.64 98.1035C160.729 98.1332 160.793 98.1728 160.823 98.2173C160.862 98.2618 160.882 98.3163 160.882 98.3757V106.349ZM161.065 95.6438C161.065 96.0991 160.971 96.4109 160.783 96.5841C160.601 96.7573 160.26 96.8415 159.757 96.8415C159.249 96.8415 158.908 96.7623 158.73 96.594C158.558 96.4258 158.469 96.1239 158.469 95.6883C158.469 95.233 158.558 94.9163 158.74 94.7431C158.923 94.5649 159.263 94.4758 159.772 94.4758C160.275 94.4758 160.616 94.5649 160.793 94.7332C160.976 94.9014 161.065 95.2033 161.065 95.6438ZM170.442 106.378C170.442 106.457 170.412 106.522 170.353 106.571C170.293 106.621 170.2 106.655 170.071 106.675C169.943 106.695 169.751 106.705 169.499 106.705C169.232 106.705 169.035 106.695 168.917 106.675C168.793 106.655 168.704 106.621 168.655 106.571C168.606 106.522 168.581 106.457 168.581 106.378V105.74C168.25 106.091 167.88 106.363 167.461 106.556C167.041 106.754 166.577 106.853 166.064 106.853C165.645 106.853 165.255 106.799 164.899 106.685C164.544 106.576 164.243 106.413 163.981 106.195C163.725 105.977 163.522 105.705 163.379 105.384C163.236 105.062 163.167 104.686 163.167 104.26C163.167 103.79 163.256 103.389 163.439 103.048C163.621 102.701 163.893 102.419 164.248 102.191C164.608 101.969 165.052 101.805 165.59 101.696C166.123 101.593 166.745 101.538 167.451 101.538H168.231V101.053C168.231 100.801 168.206 100.583 168.152 100.395C168.107 100.207 168.018 100.048 167.905 99.9247C167.786 99.796 167.633 99.707 167.441 99.6426C167.248 99.5882 167.007 99.5585 166.725 99.5585C166.35 99.5585 166.015 99.5981 165.724 99.6822C165.427 99.7614 165.166 99.8604 164.944 99.9594C164.717 100.058 164.529 100.152 164.376 100.237C164.223 100.321 164.1 100.365 164.006 100.365C163.942 100.365 163.883 100.34 163.833 100.301C163.784 100.256 163.74 100.197 163.71 100.123C163.675 100.043 163.651 99.9495 163.631 99.8356C163.611 99.7218 163.606 99.5981 163.606 99.4595C163.606 99.2764 163.621 99.1279 163.651 99.0191C163.675 98.9151 163.735 98.8211 163.819 98.732C163.902 98.6429 164.046 98.5489 164.258 98.445C164.465 98.341 164.707 98.247 164.988 98.1579C165.269 98.0639 165.571 97.9896 165.901 97.9352C166.232 97.8808 166.577 97.8511 166.928 97.8511C167.55 97.8511 168.083 97.9105 168.527 98.0342C168.971 98.1579 169.336 98.346 169.617 98.5984C169.904 98.8557 170.116 99.1824 170.244 99.5783C170.377 99.9792 170.442 100.454 170.442 100.999V106.378ZM168.231 102.949H167.372C167.012 102.949 166.701 102.973 166.449 103.028C166.192 103.082 165.985 103.161 165.822 103.27C165.659 103.379 165.546 103.508 165.472 103.661C165.398 103.81 165.358 103.988 165.358 104.181C165.358 104.517 165.467 104.78 165.674 104.968C165.886 105.161 166.178 105.255 166.553 105.255C166.868 105.255 167.155 105.181 167.421 105.017C167.688 104.854 167.954 104.616 168.231 104.31V102.949ZM178.831 104.087C178.831 104.537 178.747 104.938 178.58 105.289C178.407 105.631 178.17 105.923 177.859 106.156C177.548 106.388 177.183 106.561 176.759 106.68C176.334 106.794 175.875 106.853 175.382 106.853C175.086 106.853 174.799 106.829 174.528 106.784C174.256 106.74 174.015 106.68 173.797 106.611C173.585 106.542 173.408 106.472 173.264 106.398C173.121 106.329 173.018 106.26 172.954 106.195C172.884 106.131 172.835 106.032 172.801 105.898C172.761 105.77 172.746 105.572 172.746 105.304C172.746 105.136 172.751 104.997 172.761 104.894C172.776 104.79 172.796 104.705 172.815 104.641C172.84 104.582 172.87 104.537 172.909 104.517C172.939 104.498 172.988 104.488 173.042 104.488C173.107 104.488 173.2 104.522 173.329 104.602C173.457 104.676 173.615 104.76 173.807 104.849C174 104.938 174.222 105.027 174.474 105.101C174.725 105.181 175.016 105.22 175.337 105.22C175.535 105.22 175.717 105.2 175.875 105.156C176.033 105.116 176.171 105.057 176.285 104.978C176.403 104.899 176.492 104.804 176.551 104.681C176.611 104.562 176.64 104.423 176.64 104.265C176.64 104.087 176.586 103.933 176.472 103.805C176.364 103.676 176.216 103.567 176.038 103.468C175.855 103.374 175.648 103.285 175.416 103.201C175.189 103.117 174.952 103.028 174.71 102.924C174.469 102.825 174.232 102.706 174.005 102.572C173.778 102.444 173.566 102.285 173.383 102.092C173.205 101.904 173.057 101.672 172.949 101.404C172.835 101.137 172.781 100.811 172.781 100.434C172.781 100.053 172.86 99.707 173.008 99.3853C173.156 99.0685 173.368 98.7914 173.649 98.5637C173.936 98.341 174.276 98.1629 174.676 98.0391C175.081 97.9105 175.535 97.8511 176.038 97.8511C176.29 97.8511 176.532 97.8709 176.768 97.9006C177 97.9402 177.218 97.9847 177.405 98.0391C177.598 98.0936 177.76 98.148 177.889 98.2124C178.022 98.2717 178.116 98.3262 178.175 98.3707C178.234 98.4153 178.274 98.4598 178.298 98.5043C178.318 98.5489 178.338 98.6033 178.348 98.6677C178.363 98.7271 178.372 98.8062 178.382 98.9003C178.392 98.9894 178.392 99.1081 178.392 99.2467C178.392 99.4051 178.392 99.5387 178.382 99.6377C178.372 99.7416 178.358 99.8208 178.338 99.8802C178.313 99.9396 178.289 99.9792 178.249 100.004C178.214 100.024 178.17 100.034 178.126 100.034C178.071 100.034 177.987 100.004 177.874 99.9396C177.76 99.8752 177.617 99.8109 177.445 99.7416C177.277 99.6674 177.079 99.603 176.857 99.5387C176.63 99.4744 176.374 99.4447 176.087 99.4447C175.885 99.4447 175.707 99.4694 175.559 99.509C175.406 99.5486 175.288 99.6129 175.189 99.6872C175.095 99.7614 175.021 99.8554 174.977 99.9594C174.928 100.063 174.903 100.177 174.903 100.291C174.903 100.479 174.962 100.632 175.071 100.761C175.184 100.885 175.337 100.994 175.52 101.088C175.702 101.187 175.915 101.276 176.152 101.36C176.388 101.439 176.625 101.533 176.867 101.632C177.109 101.726 177.351 101.845 177.583 101.974C177.82 102.107 178.032 102.271 178.214 102.459C178.402 102.652 178.55 102.879 178.664 103.142C178.777 103.409 178.831 103.726 178.831 104.087Z" fill="#96989A"/>
<path d="M49.9091 114.757C49.9091 114.841 49.9091 114.915 49.8992 114.975C49.8943 115.034 49.8844 115.084 49.8696 115.118C49.8548 115.158 49.84 115.183 49.8202 115.193C49.8054 115.212 49.7807 115.217 49.7561 115.217C49.7166 115.217 49.6574 115.193 49.5735 115.138C49.4896 115.089 49.381 115.029 49.2428 114.97C49.1046 114.91 48.9418 114.851 48.7493 114.797C48.5568 114.747 48.3347 114.722 48.083 114.722C47.8116 114.722 47.5698 114.767 47.3477 114.861C47.1305 114.955 46.943 115.089 46.79 115.262C46.6321 115.435 46.5136 115.638 46.4297 115.88C46.3458 116.123 46.3064 116.385 46.3064 116.677C46.3064 116.999 46.3458 117.281 46.4297 117.529C46.5186 117.771 46.637 117.974 46.79 118.142C46.943 118.306 47.1256 118.429 47.3378 118.513C47.555 118.598 47.7919 118.637 48.0485 118.637C48.1768 118.637 48.3002 118.622 48.4236 118.593C48.5519 118.568 48.6654 118.523 48.769 118.464V117.157H47.7129C47.6635 117.157 47.6241 117.128 47.5945 117.058C47.5648 116.994 47.55 116.885 47.55 116.732C47.55 116.648 47.555 116.583 47.5599 116.529C47.5698 116.474 47.5796 116.43 47.5945 116.395C47.6093 116.361 47.6241 116.336 47.6438 116.321C47.6685 116.306 47.6882 116.296 47.7129 116.296H49.5981C49.6475 116.296 49.687 116.306 49.7215 116.321C49.761 116.336 49.7906 116.361 49.8202 116.395C49.8449 116.425 49.8646 116.464 49.8794 116.509C49.8943 116.554 49.9041 116.608 49.9041 116.662V118.894C49.9041 118.984 49.8893 119.058 49.8548 119.122C49.8252 119.186 49.7659 119.241 49.6722 119.276C49.5784 119.315 49.46 119.355 49.3218 119.394C49.1836 119.434 49.0405 119.474 48.8924 119.498C48.7443 119.528 48.5963 119.553 48.4433 119.563C48.2953 119.577 48.1423 119.587 47.9893 119.587C47.5402 119.587 47.1453 119.523 46.79 119.394C46.4396 119.266 46.1386 119.078 45.8918 118.835C45.65 118.593 45.4624 118.296 45.3341 117.944C45.2009 117.593 45.1367 117.192 45.1367 116.752C45.1367 116.291 45.2058 115.876 45.344 115.514C45.4822 115.148 45.6796 114.836 45.9313 114.579C46.1879 114.326 46.489 114.129 46.8492 113.995C47.2095 113.856 47.6093 113.792 48.0485 113.792C48.2903 113.792 48.5075 113.807 48.7049 113.841C48.9023 113.876 49.0799 113.916 49.228 113.965C49.3761 114.01 49.4994 114.064 49.5932 114.119C49.6919 114.173 49.761 114.223 49.8005 114.262C49.84 114.302 49.8696 114.361 49.8844 114.435C49.9041 114.505 49.9091 114.614 49.9091 114.757ZM56.2755 119.335C56.2755 119.36 56.2705 119.389 56.2508 119.414C56.231 119.434 56.2014 119.454 56.157 119.469C56.1126 119.483 56.0534 119.493 55.9843 119.503C55.9103 119.513 55.8214 119.513 55.7079 119.513C55.5993 119.513 55.5056 119.513 55.4315 119.503C55.3575 119.493 55.3032 119.483 55.2588 119.469C55.2144 119.454 55.1848 119.434 55.165 119.414C55.1453 119.389 55.1354 119.36 55.1354 119.335V114.044C55.1354 114.015 55.1453 113.99 55.165 113.965C55.1848 113.94 55.2144 113.926 55.2588 113.911C55.3032 113.896 55.3625 113.886 55.4365 113.876C55.5056 113.866 55.5993 113.861 55.7079 113.861C55.8214 113.861 55.9103 113.866 55.9843 113.876C56.0534 113.886 56.1126 113.896 56.157 113.911C56.2014 113.926 56.231 113.94 56.2508 113.965C56.2705 113.99 56.2755 114.015 56.2755 114.044V119.335ZM66.1755 119.092C66.1755 119.157 66.1607 119.216 66.1409 119.271C66.1163 119.32 66.0866 119.365 66.0472 119.399C66.0077 119.434 65.9633 119.459 65.909 119.473C65.8547 119.488 65.8004 119.498 65.7461 119.498H65.2625C65.1588 119.498 65.0749 119.488 65.0009 119.469C64.9269 119.449 64.8627 119.409 64.7986 119.36C64.7344 119.305 64.6752 119.231 64.6209 119.142C64.5617 119.053 64.4975 118.934 64.4235 118.786L63.0367 116.168C62.9577 116.014 62.8738 115.846 62.7899 115.663C62.706 115.485 62.6369 115.306 62.5678 115.138H62.558C62.5728 115.346 62.5826 115.554 62.5876 115.762C62.5925 115.965 62.5975 116.177 62.5975 116.395V119.33C62.5975 119.36 62.5876 119.384 62.5728 119.409C62.558 119.429 62.5284 119.449 62.4889 119.464C62.4494 119.483 62.4001 119.493 62.331 119.503C62.2668 119.513 62.178 119.513 62.0743 119.513C61.9756 119.513 61.8917 119.513 61.8226 119.503C61.7585 119.493 61.7091 119.483 61.6696 119.464C61.6302 119.449 61.6055 119.429 61.5907 119.409C61.5759 119.384 61.5709 119.36 61.5709 119.33V114.297C61.5709 114.158 61.6104 114.059 61.6894 113.99C61.7683 113.921 61.8621 113.886 61.9806 113.886H62.5876C62.6962 113.886 62.7899 113.896 62.864 113.916C62.9429 113.936 63.0071 113.965 63.0663 114.01C63.1255 114.054 63.1798 114.114 63.2341 114.188C63.2834 114.267 63.3377 114.361 63.392 114.475L64.4778 116.524C64.5419 116.648 64.6011 116.766 64.6653 116.885C64.7245 117.009 64.7887 117.128 64.843 117.246C64.9022 117.365 64.9565 117.484 65.0108 117.598C65.0651 117.717 65.1193 117.83 65.1687 117.949H65.1736C65.1687 117.746 65.1588 117.533 65.1539 117.316C65.149 117.093 65.149 116.885 65.149 116.687V114.054C65.149 114.03 65.1588 114 65.1736 113.98C65.1934 113.955 65.223 113.936 65.2625 113.916C65.3019 113.901 65.3562 113.886 65.4204 113.881C65.4895 113.871 65.5734 113.871 65.677 113.871C65.7757 113.871 65.8596 113.871 65.9238 113.881C65.9879 113.886 66.0422 113.901 66.0768 113.916C66.1113 113.936 66.1409 113.955 66.1508 113.98C66.1656 114 66.1755 114.025 66.1755 114.054V119.092ZM74.7726 119.043C74.7726 119.127 74.7677 119.196 74.7627 119.251C74.7528 119.31 74.743 119.355 74.7282 119.389C74.7134 119.424 74.6986 119.449 74.6739 119.464C74.6541 119.483 74.6295 119.488 74.6048 119.488H71.8016C71.7078 119.488 71.6289 119.459 71.5647 119.404C71.5006 119.35 71.466 119.256 71.466 119.132V114.247C71.466 114.119 71.5006 114.03 71.5647 113.97C71.6289 113.916 71.7078 113.886 71.8016 113.886H74.59C74.6147 113.886 74.6393 113.896 74.6591 113.911C74.6788 113.926 74.6986 113.95 74.7134 113.985C74.7232 114.025 74.738 114.069 74.743 114.124C74.7529 114.183 74.7529 114.252 74.7529 114.341C74.7529 114.421 74.7529 114.49 74.743 114.544C74.738 114.604 74.7282 114.648 74.7134 114.683C74.6986 114.717 74.6788 114.742 74.6591 114.757C74.6393 114.777 74.6147 114.782 74.59 114.782H72.5962V116.148H74.2791C74.3037 116.148 74.3284 116.158 74.3482 116.172C74.3679 116.187 74.3876 116.212 74.4025 116.247C74.4173 116.276 74.4271 116.321 74.437 116.38C74.4419 116.435 74.4469 116.504 74.4469 116.583C74.4469 116.667 74.4419 116.737 74.437 116.791C74.4271 116.846 74.4173 116.89 74.4025 116.925C74.3876 116.959 74.3679 116.979 74.3482 116.994C74.3284 117.009 74.3037 117.014 74.2791 117.014H72.5962V118.593H74.6048C74.6295 118.593 74.6541 118.602 74.6739 118.617C74.6986 118.632 74.7134 118.657 74.7282 118.697C74.743 118.726 74.7528 118.776 74.7627 118.83C74.7677 118.89 74.7726 118.959 74.7726 119.043ZM83.5869 118.642C83.5869 118.716 83.5869 118.776 83.5819 118.825C83.577 118.88 83.5671 118.924 83.5622 118.959C83.5523 118.993 83.5424 119.023 83.5276 119.053C83.5128 119.078 83.4882 119.107 83.4585 119.137C83.424 119.172 83.3648 119.216 83.2759 119.266C83.1822 119.315 83.0736 119.365 82.9403 119.414C82.812 119.459 82.664 119.498 82.4962 119.528C82.3235 119.563 82.1458 119.577 81.9484 119.577C81.5684 119.577 81.2229 119.518 80.912 119.399C80.606 119.28 80.3444 119.102 80.1273 118.87C79.9101 118.637 79.7473 118.34 79.6338 117.989C79.5153 117.637 79.461 117.227 79.461 116.761C79.461 116.286 79.5252 115.866 79.6486 115.494C79.7769 115.128 79.9546 114.816 80.1816 114.564C80.4086 114.312 80.68 114.124 80.9959 113.995C81.3167 113.866 81.6671 113.802 82.0471 113.802C82.2001 113.802 82.3531 113.812 82.4962 113.841C82.6393 113.866 82.7726 113.896 82.8959 113.94C83.0193 113.98 83.1279 114.03 83.2266 114.084C83.3204 114.143 83.3895 114.188 83.4289 114.227C83.4684 114.267 83.4931 114.302 83.5079 114.326C83.5227 114.351 83.5375 114.386 83.5424 114.425C83.5523 114.465 83.5572 114.515 83.5622 114.569C83.5671 114.623 83.5671 114.688 83.5671 114.772C83.5671 114.856 83.5671 114.93 83.5622 114.99C83.5523 115.049 83.5424 115.099 83.5326 115.138C83.5178 115.173 83.498 115.202 83.4783 115.217C83.4585 115.237 83.4339 115.242 83.4092 115.242C83.3697 115.242 83.3105 115.217 83.2463 115.168C83.1822 115.118 83.0933 115.064 82.9897 115C82.8861 114.94 82.7627 114.881 82.6146 114.831C82.4715 114.782 82.2988 114.757 82.0964 114.757C81.8743 114.757 81.6769 114.802 81.5042 114.891C81.3315 114.985 81.1834 115.113 81.06 115.282C80.9367 115.45 80.8478 115.653 80.7837 115.895C80.7195 116.133 80.6899 116.4 80.6899 116.702C80.6899 117.029 80.7244 117.316 80.7886 117.553C80.8577 117.796 80.9515 117.994 81.0798 118.147C81.2032 118.306 81.3561 118.419 81.5289 118.499C81.7065 118.573 81.904 118.612 82.126 118.612C82.3284 118.612 82.5011 118.588 82.6492 118.543C82.7923 118.494 82.9206 118.439 83.0242 118.385C83.1279 118.325 83.2167 118.276 83.2858 118.231C83.35 118.182 83.4043 118.162 83.4388 118.162C83.4684 118.162 83.4931 118.167 83.5079 118.177C83.5276 118.187 83.5424 118.211 83.5523 118.246C83.5622 118.281 83.5721 118.33 83.577 118.39C83.5819 118.454 83.5869 118.538 83.5869 118.642ZM93.4326 116.623C93.4326 117.088 93.3783 117.504 93.2599 117.87C93.1463 118.236 92.9736 118.548 92.7466 118.8C92.5196 119.058 92.2383 119.251 91.9076 119.384C91.5671 119.518 91.1821 119.587 90.7429 119.587C90.3086 119.587 89.9286 119.528 89.6078 119.414C89.2821 119.3 89.0106 119.127 88.7984 118.894C88.5813 118.662 88.4184 118.365 88.3098 118.004C88.2062 117.642 88.147 117.217 88.147 116.722C88.147 116.271 88.2062 115.861 88.3197 115.499C88.4382 115.138 88.606 114.831 88.8379 114.579C89.06 114.322 89.3462 114.129 89.6769 113.995C90.0125 113.856 90.4024 113.792 90.8465 113.792C91.271 113.792 91.6411 113.846 91.9668 113.96C92.2876 114.069 92.559 114.242 92.7762 114.48C92.9933 114.713 93.1562 115.005 93.2697 115.361C93.3783 115.722 93.4326 116.138 93.4326 116.623ZM92.2432 116.682C92.2432 116.385 92.2185 116.118 92.1692 115.88C92.1248 115.638 92.0458 115.43 91.9372 115.262C91.8286 115.089 91.6806 114.955 91.493 114.861C91.3104 114.767 91.0834 114.722 90.8071 114.722C90.5258 114.722 90.2938 114.772 90.1112 114.881C89.9237 114.985 89.7707 115.128 89.6572 115.301C89.5387 115.475 89.4597 115.683 89.4104 115.915C89.366 116.153 89.3413 116.4 89.3413 116.662C89.3413 116.969 89.366 117.246 89.4104 117.489C89.4548 117.731 89.5338 117.939 89.6423 118.117C89.7509 118.286 89.899 118.419 90.0816 118.508C90.2691 118.602 90.5011 118.647 90.7774 118.647C91.0538 118.647 91.2858 118.593 91.4733 118.489C91.6608 118.385 91.8138 118.246 91.9273 118.068C92.0409 117.89 92.1248 117.682 92.1692 117.439C92.2185 117.202 92.2432 116.949 92.2432 116.682ZM101.536 119.013C101.536 119.097 101.531 119.172 101.521 119.231C101.516 119.29 101.507 119.34 101.492 119.379C101.477 119.419 101.457 119.444 101.437 119.464C101.413 119.478 101.388 119.488 101.363 119.488H98.8021C98.7083 119.488 98.6293 119.459 98.5652 119.404C98.501 119.35 98.4665 119.256 98.4665 119.132V114.044C98.4665 114.015 98.4764 113.99 98.4961 113.965C98.5158 113.94 98.5455 113.926 98.5899 113.911C98.6293 113.896 98.6886 113.886 98.7626 113.876C98.8366 113.866 98.9304 113.861 99.039 113.861C99.1475 113.861 99.2413 113.866 99.3153 113.876C99.3844 113.886 99.4437 113.896 99.4881 113.911C99.5276 113.926 99.5621 113.94 99.5818 113.965C99.5966 113.99 99.6065 114.015 99.6065 114.044V118.548H101.363C101.388 118.548 101.418 118.558 101.437 118.573C101.457 118.588 101.477 118.612 101.492 118.652C101.507 118.687 101.516 118.736 101.521 118.795C101.531 118.855 101.536 118.924 101.536 119.013ZM111.145 116.623C111.145 117.088 111.086 117.504 110.972 117.87C110.859 118.236 110.686 118.548 110.459 118.8C110.232 119.058 109.951 119.251 109.615 119.384C109.28 119.518 108.895 119.587 108.455 119.587C108.016 119.587 107.641 119.528 107.315 119.414C106.995 119.3 106.723 119.127 106.506 118.894C106.294 118.662 106.131 118.365 106.022 118.004C105.914 117.642 105.859 117.217 105.859 116.722C105.859 116.271 105.919 115.861 106.032 115.499C106.146 115.138 106.318 114.831 106.545 114.579C106.772 114.322 107.054 114.129 107.389 113.995C107.725 113.856 108.115 113.792 108.559 113.792C108.978 113.792 109.354 113.846 109.674 113.96C110 114.069 110.271 114.242 110.489 114.48C110.706 114.713 110.869 115.005 110.977 115.361C111.091 115.722 111.145 116.138 111.145 116.623ZM109.951 116.682C109.951 116.385 109.926 116.118 109.882 115.88C109.837 115.638 109.758 115.43 109.65 115.262C109.536 115.089 109.393 114.955 109.205 114.861C109.023 114.767 108.791 114.722 108.519 114.722C108.238 114.722 108.006 114.772 107.819 114.881C107.636 114.985 107.483 115.128 107.37 115.301C107.251 115.475 107.172 115.683 107.123 115.915C107.078 116.153 107.054 116.4 107.054 116.662C107.054 116.969 107.078 117.246 107.123 117.489C107.167 117.731 107.246 117.939 107.355 118.117C107.463 118.286 107.611 118.419 107.794 118.508C107.977 118.602 108.209 118.647 108.49 118.647C108.766 118.647 108.998 118.593 109.186 118.489C109.373 118.385 109.526 118.246 109.64 118.068C109.753 117.89 109.832 117.682 109.882 117.439C109.926 117.202 109.951 116.949 109.951 116.682ZM120.66 114.757C120.66 114.841 120.655 114.915 120.65 114.975C120.64 115.034 120.63 115.084 120.621 115.118C120.606 115.158 120.591 115.183 120.571 115.193C120.551 115.212 120.532 115.217 120.502 115.217C120.468 115.217 120.408 115.193 120.324 115.138C120.241 115.089 120.127 115.029 119.989 114.97C119.851 114.91 119.688 114.851 119.495 114.797C119.308 114.747 119.086 114.722 118.829 114.722C118.563 114.722 118.316 114.767 118.099 114.861C117.877 114.955 117.689 115.089 117.536 115.262C117.383 115.435 117.265 115.638 117.181 115.88C117.097 116.123 117.052 116.385 117.052 116.677C117.052 116.999 117.097 117.281 117.181 117.529C117.265 117.771 117.383 117.974 117.536 118.142C117.689 118.306 117.872 118.429 118.089 118.513C118.301 118.598 118.538 118.637 118.799 118.637C118.923 118.637 119.051 118.622 119.175 118.593C119.298 118.568 119.411 118.523 119.52 118.464V117.157H118.464C118.41 117.157 118.37 117.128 118.341 117.058C118.316 116.994 118.301 116.885 118.301 116.732C118.301 116.648 118.301 116.583 118.311 116.529C118.316 116.474 118.331 116.43 118.341 116.395C118.355 116.361 118.375 116.336 118.395 116.321C118.415 116.306 118.439 116.296 118.464 116.296H120.349C120.394 116.296 120.438 116.306 120.473 116.321C120.507 116.336 120.537 116.361 120.566 116.395C120.591 116.425 120.616 116.464 120.63 116.509C120.645 116.554 120.65 116.608 120.65 116.662V118.894C120.65 118.984 120.635 119.058 120.606 119.122C120.576 119.186 120.512 119.241 120.418 119.276C120.324 119.315 120.211 119.355 120.073 119.394C119.935 119.434 119.791 119.474 119.643 119.498C119.495 119.528 119.342 119.553 119.194 119.563C119.041 119.577 118.888 119.587 118.735 119.587C118.291 119.587 117.891 119.523 117.536 119.394C117.186 119.266 116.89 119.078 116.643 118.835C116.401 118.593 116.213 118.296 116.08 117.944C115.952 117.593 115.888 117.192 115.888 116.752C115.888 116.291 115.957 115.876 116.095 115.514C116.233 115.148 116.426 114.836 116.682 114.579C116.934 114.326 117.24 114.129 117.6 113.995C117.956 113.856 118.355 113.792 118.795 113.792C119.036 113.792 119.258 113.807 119.456 113.841C119.653 113.876 119.826 113.916 119.974 113.965C120.122 114.01 120.246 114.064 120.344 114.119C120.443 114.173 120.512 114.223 120.547 114.262C120.591 114.302 120.616 114.361 120.63 114.435C120.65 114.505 120.66 114.614 120.66 114.757ZM127.026 119.335C127.026 119.36 127.017 119.389 126.997 119.414C126.977 119.434 126.948 119.454 126.903 119.469C126.864 119.483 126.804 119.493 126.735 119.503C126.661 119.513 126.568 119.513 126.454 119.513C126.345 119.513 126.257 119.513 126.183 119.503C126.109 119.493 126.049 119.483 126.005 119.469C125.965 119.454 125.931 119.434 125.916 119.414C125.896 119.389 125.886 119.36 125.886 119.335V114.044C125.886 114.015 125.896 113.99 125.916 113.965C125.931 113.94 125.965 113.926 126.01 113.911C126.054 113.896 126.113 113.886 126.183 113.876C126.257 113.866 126.345 113.861 126.454 113.861C126.568 113.861 126.661 113.866 126.735 113.876C126.804 113.886 126.864 113.896 126.903 113.911C126.948 113.926 126.977 113.94 126.997 113.965C127.017 113.99 127.026 114.015 127.026 114.044V119.335ZM136.892 119.063C136.926 119.167 136.946 119.251 136.956 119.31C136.966 119.37 136.956 119.419 136.922 119.449C136.892 119.478 136.833 119.498 136.754 119.503C136.675 119.513 136.561 119.513 136.423 119.513C136.275 119.513 136.162 119.513 136.078 119.508C135.999 119.503 135.935 119.498 135.89 119.483C135.846 119.469 135.816 119.454 135.801 119.429C135.782 119.404 135.767 119.375 135.757 119.34L135.392 118.211H133.284L132.934 119.305C132.919 119.35 132.904 119.384 132.89 119.409C132.87 119.439 132.84 119.459 132.796 119.473C132.756 119.488 132.697 119.498 132.623 119.508C132.544 119.513 132.445 119.513 132.322 119.513C132.189 119.513 132.085 119.513 132.011 119.503C131.937 119.493 131.883 119.474 131.853 119.439C131.824 119.404 131.814 119.36 131.824 119.3C131.833 119.236 131.853 119.157 131.888 119.058L133.61 114.084C133.625 114.034 133.645 113.995 133.669 113.97C133.694 113.936 133.728 113.916 133.778 113.896C133.832 113.881 133.901 113.871 133.99 113.866C134.079 113.861 134.197 113.861 134.34 113.861C134.513 113.861 134.646 113.861 134.75 113.866C134.849 113.871 134.928 113.881 134.982 113.896C135.041 113.916 135.081 113.94 135.105 113.97C135.13 114 135.15 114.044 135.165 114.099L136.892 119.063ZM134.331 114.955H134.326L133.546 117.336H135.115L134.331 114.955Z" fill="#96989A"/>
</g>
<defs>
<linearGradient id="paint0_linear" x1="56.8926" y1="46.6582" x2="128.976" y2="46.6582" gradientUnits="userSpaceOnUse">
<stop stop-color="#EE578A"/>
<stop offset="1" stop-color="#A14574"/>
</linearGradient>
<clipPath id="clip0">
<rect width="186" height="143" fill="white"/>
</clipPath>
</defs>
</svg>
